<svg width="869" height="88" viewBox="0 0 869 88" fill="none" xmlns="http://www.w3.org/2000/svg">
<path d="M401.499 8.26776H396.984V9.5554H401.499V8.26776ZM406.602 14.1392C408.68 14.1392 410.206 12.8963 410.201 11.206C410.206 9.91832 409.425 8.99361 408.073 8.7848V8.70526C409.137 8.43182 409.828 7.59659 409.823 6.45312C409.828 4.95668 408.6 3.67898 406.641 3.67898C404.772 3.67898 403.271 4.80753 403.221 6.46307H404.707C404.742 5.52841 405.622 4.96165 406.621 4.96165C407.661 4.96165 408.342 5.59304 408.337 6.53267C408.342 7.51705 407.551 8.16335 406.423 8.16335H405.563V9.41619H406.423C407.835 9.41619 408.65 10.1321 408.65 11.1562C408.65 12.1456 407.79 12.8168 406.592 12.8168C405.488 12.8168 404.628 12.25 404.568 11.3452H403.007C403.072 13.0057 404.543 14.1392 406.602 14.1392ZM415.345 14.169C417.697 14.169 419.074 12.25 419.074 8.91406C419.074 5.60298 417.677 3.67898 415.345 3.67898C413.008 3.67898 411.616 5.59801 411.611 8.91406C411.611 12.245 412.988 14.1641 415.345 14.169ZM415.345 12.8416C413.968 12.8416 413.138 11.4595 413.138 8.91406C413.143 6.37855 413.973 4.98153 415.345 4.98153C416.712 4.98153 417.547 6.37855 417.547 8.91406C417.547 11.4595 416.717 12.8416 415.345 12.8416ZM425.872 12.0909C425.877 13.2393 426.598 14.2088 427.945 14.2088C429.278 14.2088 430.008 13.2393 430.008 12.0909V11.554C430.008 10.4006 429.297 9.43608 427.945 9.43608C426.618 9.43608 425.877 10.4055 425.872 11.554V12.0909ZM420.751 6.2642C420.751 7.41264 421.477 8.3821 422.824 8.3821C424.152 8.3821 424.888 7.41761 424.883 6.2642V5.72727C424.888 4.57386 424.172 3.60938 422.824 3.60938C421.502 3.60938 420.751 4.57386 420.751 5.72727V6.2642ZM421.169 14H422.357L429.357 3.81818H428.169L421.169 14ZM427.03 11.554C427.035 10.9822 427.284 10.4304 427.945 10.4304C428.631 10.4304 428.845 10.9822 428.845 11.554V12.0909C428.845 12.6626 428.611 13.2145 427.945 13.2145C427.269 13.2145 427.035 12.6577 427.03 12.0909V11.554ZM421.915 5.72727C421.915 5.16051 422.163 4.60369 422.824 4.60369C423.51 4.60369 423.724 5.15554 423.724 5.72727V6.2642C423.724 6.83594 423.491 7.38778 422.824 7.38778C422.148 7.38778 421.915 6.83594 421.915 6.2642V5.72727Z" fill="#30AAAA"/>
<path d="M377.871 68H384.315V66.6776H379.408V63.5604H383.922V62.2429H379.408V59.1406H384.255V57.8182H377.871V68ZM388.13 68.169C389.393 68.169 390.104 67.5277 390.387 66.956H390.447V68H391.898V62.929C391.898 60.7067 390.148 60.2642 388.935 60.2642C387.553 60.2642 386.281 60.821 385.783 62.2131L387.18 62.5312C387.399 61.9893 387.956 61.4673 388.955 61.4673C389.915 61.4673 390.407 61.9695 390.407 62.8345V62.8693C390.407 63.4112 389.85 63.4013 388.478 63.5604C387.031 63.7294 385.55 64.1072 385.55 65.8423C385.55 67.3438 386.678 68.169 388.13 68.169ZM388.453 66.9759C387.613 66.9759 387.006 66.598 387.006 65.8622C387.006 65.0668 387.712 64.7834 388.573 64.669C389.055 64.6044 390.198 64.4751 390.412 64.2614V65.2457C390.412 66.1506 389.691 66.9759 388.453 66.9759ZM393.598 68H395.085V63.3366C395.085 62.3374 395.856 61.6165 396.91 61.6165C397.218 61.6165 397.566 61.6712 397.685 61.706V60.2841C397.536 60.2642 397.243 60.2493 397.054 60.2493C396.159 60.2493 395.393 60.7564 395.115 61.5767H395.035V60.3636H393.598V68ZM400.178 57.8182H398.691V68H400.178V57.8182ZM402.837 70.8636C404.065 70.8636 404.841 70.2223 405.283 69.0192L408.44 60.3786L406.835 60.3636L404.901 66.2898H404.821L402.887 60.3636H401.296L404.09 68.0994L403.906 68.6065C403.528 69.6207 402.997 69.7053 402.181 69.4815L401.823 70.6996C402.002 70.7791 402.39 70.8636 402.837 70.8636ZM412.986 68H414.473V65.2905L415.214 64.5497L417.809 68H419.633L416.332 63.6399L419.424 60.3636H417.645L414.602 63.5952H414.473V57.8182H412.986V68ZM423.401 68.1541C425.554 68.1541 426.961 66.5781 426.961 64.2166C426.961 61.8402 425.554 60.2642 423.401 60.2642C421.249 60.2642 419.842 61.8402 419.842 64.2166C419.842 66.5781 421.249 68.1541 423.401 68.1541ZM423.406 66.9062C421.999 66.9062 421.343 65.6783 421.343 64.2116C421.343 62.75 421.999 61.5071 423.406 61.5071C424.803 61.5071 425.46 62.75 425.46 64.2116C425.46 65.6783 424.803 66.9062 423.406 66.9062ZM429.827 57.8182H428.34V68H429.827V57.8182ZM432.486 70.8636C433.714 70.8636 434.49 70.2223 434.932 69.0192L438.089 60.3786L436.483 60.3636L434.549 66.2898H434.47L432.536 60.3636H430.945L433.739 68.0994L433.555 68.6065C433.177 69.6207 432.645 69.7053 431.83 69.4815L431.472 70.6996C431.651 70.7791 432.039 70.8636 432.486 70.8636ZM442.228 68.1541C443.893 68.1541 445.072 67.3338 445.41 66.0909L444.003 65.8374C443.734 66.5582 443.088 66.9261 442.243 66.9261C440.97 66.9261 440.115 66.1009 440.075 64.6293H445.504V64.1023C445.504 61.343 443.853 60.2642 442.123 60.2642C439.996 60.2642 438.594 61.8849 438.594 64.2315C438.594 66.603 439.976 68.1541 442.228 68.1541ZM440.08 63.5156C440.14 62.4318 440.925 61.4922 442.133 61.4922C443.287 61.4922 444.042 62.3473 444.047 63.5156H440.08ZM446.873 68H448.36V63.3366C448.36 62.3374 449.13 61.6165 450.184 61.6165C450.493 61.6165 450.841 61.6712 450.96 61.706V60.2841C450.811 60.2642 450.518 60.2493 450.329 60.2493C449.434 60.2493 448.668 60.7564 448.39 61.5767H448.31V60.3636H446.873V68ZM379.106 79.9091C379.106 82.2905 379.733 84.4084 380.856 86.2727H381.662C380.697 84.7166 380.021 82.201 380.021 79.9091C380.021 77.6222 380.692 75.1065 381.662 73.5455H380.856C379.733 75.3999 379.106 77.5227 379.106 79.9091ZM386.479 85C389.541 85 391.286 83.0859 391.291 79.8842C391.291 76.7173 389.571 74.8182 386.658 74.8182H383.496V85H386.479ZM384.425 84.1648V75.6534H386.603C389.074 75.6534 390.386 77.2493 390.391 79.8842C390.391 82.544 389.049 84.1648 386.424 84.1648H384.425ZM393.091 85H393.98V77.3636H393.091V85ZM393.543 76.0511C393.906 76.0511 394.209 75.7628 394.209 75.4148C394.209 75.0668 393.906 74.7784 393.543 74.7784C393.18 74.7784 392.882 75.0668 392.882 75.4148C392.882 75.7628 393.18 76.0511 393.543 76.0511ZM399.024 85.1591C400.615 85.1591 401.733 84.1548 401.937 82.7727H401.042C400.838 83.7472 400.038 84.3487 399.024 84.3487C397.527 84.3487 396.538 83.0462 396.538 81.1868C396.538 79.3374 397.557 78.0646 399.024 78.0646C400.113 78.0646 400.848 78.7656 401.037 79.6307H401.932C401.723 78.2138 400.54 77.2592 399.009 77.2592C397.01 77.2592 395.648 78.9197 395.648 81.2166C395.648 83.4936 396.971 85.1591 399.024 85.1591ZM403.564 85H404.454V77.3636H403.564V85ZM404.016 76.0511C404.379 76.0511 404.682 75.7628 404.682 75.4148C404.682 75.0668 404.379 74.7784 404.016 74.7784C403.653 74.7784 403.355 75.0668 403.355 75.4148C403.355 75.7628 403.653 76.0511 404.016 76.0511ZM409.601 85.1591C411.133 85.1591 412.162 84.3288 412.51 83.3693L411.67 83.0959C411.376 83.782 410.685 84.3487 409.601 84.3487C408.04 84.3487 407.051 83.2102 407.011 81.4453H412.699V81.0078C412.699 78.4574 411.123 77.2592 409.467 77.2592C407.488 77.2592 406.121 78.9148 406.121 81.2266C406.121 83.5433 407.464 85.1591 409.601 85.1591ZM407.016 80.6648C407.111 79.2429 408.07 78.0646 409.467 78.0646C410.834 78.0646 411.794 79.1932 411.794 80.6648H407.016ZM414.369 85H415.254V80.108C415.254 78.9197 416.044 78.0746 417.103 78.0746C418.147 78.0746 418.754 78.7706 418.754 79.8047V85H419.659V79.9737C419.659 78.875 420.315 78.0746 421.478 78.0746C422.487 78.0746 423.159 78.6811 423.159 79.8842V85H424.044V79.8842C424.044 78.174 423.164 77.2642 421.747 77.2642C420.633 77.2642 419.828 77.8061 419.485 78.6513H419.42C419.082 77.7862 418.411 77.2642 417.357 77.2642C416.357 77.2642 415.612 77.7464 415.308 78.5369H415.229V77.3636H414.369V85ZM426.29 85H427.15V83.5831H427.26C427.568 84.2841 428.214 85.1591 429.606 85.1591C431.481 85.1591 432.748 83.5732 432.748 81.2017C432.748 78.8501 431.476 77.2592 429.591 77.2592C428.194 77.2592 427.563 78.1342 427.26 78.8203H427.18V74.8182H426.29V85ZM427.165 81.1868C427.165 79.3572 428.006 78.0646 429.497 78.0646C431.028 78.0646 431.859 79.4268 431.859 81.1868C431.859 82.9666 431.018 84.3487 429.497 84.3487C428.015 84.3487 427.165 83.0312 427.165 81.1868ZM434.412 85H435.297V80.0682C435.297 78.9347 436.167 78.1143 437.36 78.1143C437.594 78.1143 437.813 78.1541 437.892 78.1641V77.2642C437.773 77.2592 437.569 77.2493 437.425 77.2493C436.466 77.2493 435.645 77.7663 435.337 78.5369H435.272V77.3636H434.412V85ZM441.977 85.1591C443.509 85.1591 444.538 84.3288 444.886 83.3693L444.046 83.0959C443.752 83.782 443.061 84.3487 441.977 84.3487C440.416 84.3487 439.427 83.2102 439.387 81.4453H445.075V81.0078C445.075 78.4574 443.499 77.2592 441.843 77.2592C439.865 77.2592 438.497 78.9148 438.497 81.2266C438.497 83.5433 439.84 85.1591 441.977 85.1591ZM439.392 80.6648C439.487 79.2429 440.446 78.0646 441.843 78.0646C443.21 78.0646 444.17 79.1932 444.17 80.6648H439.392ZM448.893 80.7045C448.893 78.3232 448.266 76.2053 447.143 74.3409H446.337C447.302 75.897 447.978 78.4126 447.978 80.7045C447.978 82.9915 447.307 85.5071 446.337 87.0682H447.143C448.266 85.2138 448.893 83.0909 448.893 80.7045Z" fill="#30AAAA"/>
<path d="M514.62 68H520.626V67.1648H515.55V63.3217H520.213V62.4865H515.55V58.6534H520.527V57.8182H514.62V68ZM523.354 63.2273C523.354 61.8949 524.229 61.0746 525.432 61.0746C526.605 61.0746 527.361 61.8601 527.361 63.108V68H528.246V63.0533C528.246 61.2436 527.197 60.2642 525.656 60.2642C524.537 60.2642 523.766 60.7812 523.408 61.5618H523.329V60.3636H522.469V68H523.354V63.2273ZM533.384 68.1591C534.915 68.1591 535.944 67.3288 536.292 66.3693L535.452 66.0959C535.158 66.782 534.467 67.3487 533.384 67.3487C531.823 67.3487 530.833 66.2102 530.793 64.4453H536.481V64.0078C536.481 61.4574 534.905 60.2592 533.249 60.2592C531.271 60.2592 529.903 61.9148 529.903 64.2266C529.903 66.5433 531.246 68.1591 533.384 68.1591ZM530.798 63.6648C530.893 62.2429 531.852 61.0646 533.249 61.0646C534.617 61.0646 535.576 62.1932 535.576 63.6648H530.798ZM538.151 68H539.036V63.0682C539.036 61.9347 539.906 61.1143 541.099 61.1143C541.333 61.1143 541.552 61.1541 541.631 61.1641V60.2642C541.512 60.2592 541.308 60.2493 541.164 60.2493C540.204 60.2493 539.384 60.7663 539.076 61.5369H539.011V60.3636H538.151V68ZM545.597 68.1591C547.576 68.1591 548.958 66.5433 548.958 64.2166C548.958 61.875 547.576 60.2592 545.597 60.2592C543.618 60.2592 542.236 61.875 542.236 64.2166C542.236 66.5433 543.618 68.1591 545.597 68.1591ZM545.597 67.3487C544.011 67.3487 543.126 65.9268 543.126 64.2166C543.126 62.5064 544.011 61.0646 545.597 61.0646C547.183 61.0646 548.068 62.5064 548.068 64.2166C548.068 65.9268 547.183 67.3487 545.597 67.3487Z" fill="white"/>
<path d="M521.29 8.49148H517.054V9.3267H521.29V8.49148ZM526.339 3.81818H525.37L522.964 5.41406V6.37855L525.35 4.79261H525.41V14H526.339V3.81818ZM532.314 14.1392C534.456 14.1392 535.714 12.2053 535.714 8.90909C535.714 5.62784 534.446 3.67898 532.314 3.67898C530.181 3.67898 528.913 5.62784 528.913 8.90909C528.913 12.2053 530.171 14.1392 532.314 14.1392ZM532.314 13.304C530.748 13.304 529.813 11.6982 529.813 8.90909C529.813 6.125 530.752 4.49929 532.314 4.49929C533.875 4.49929 534.814 6.125 534.814 8.90909C534.814 11.6982 533.88 13.304 532.314 13.304ZM542.608 12.1108C542.608 13.2493 543.314 14.1392 544.492 14.1392C545.656 14.1392 546.362 13.2493 546.362 12.1108V11.6484C546.362 10.5099 545.666 9.62003 544.492 9.62003C543.329 9.62003 542.608 10.5099 542.608 11.6484V12.1108ZM537.477 6.16974C537.477 7.30824 538.183 8.19815 539.362 8.19815C540.525 8.19815 541.231 7.30824 541.231 6.16974V5.70739C541.231 4.56889 540.535 3.67898 539.362 3.67898C538.198 3.67898 537.477 4.56889 537.477 5.70739V6.16974ZM537.935 14H538.82L545.81 3.81818H544.93L537.935 14ZM543.389 11.6484C543.389 10.8977 543.772 10.2962 544.492 10.2962C545.223 10.2962 545.576 10.8977 545.576 11.6484V12.1108C545.576 12.8615 545.208 13.4631 544.492 13.4631C543.762 13.4631 543.389 12.8615 543.389 12.1108V11.6484ZM538.258 5.70739C538.258 4.95668 538.641 4.35511 539.362 4.35511C540.093 4.35511 540.446 4.95668 540.446 5.70739V6.16974C540.446 6.92045 540.078 7.52202 539.362 7.52202C538.631 7.52202 538.258 6.92045 538.258 6.16974V5.70739Z" fill="white"/>
<path d="M744.354 37.3536C744.549 37.1584 744.549 36.8418 744.354 36.6465L741.172 33.4645C740.976 33.2693 740.66 33.2693 740.464 33.4645C740.269 33.6598 740.269 33.9764 740.464 34.1716L743.293 37.0001L740.464 39.8285C740.269 40.0238 740.269 40.3403 740.464 40.5356C740.66 40.7309 740.976 40.7309 741.172 40.5356L744.354 37.3536ZM-4.37114e-08 37.5L744 37.5001L744 36.5001L4.37114e-08 36.5L-4.37114e-08 37.5Z" fill="white"/>
<circle cx="414" cy="37" r="10" fill="#30AAAA"/>
<circle cx="532" cy="37" r="6.5" fill="#F1F1F1" stroke="white"/>
<path d="M623.55 68H624.479V63.3217H628.979V62.4865H624.479V58.6534H629.441V57.8182H623.55V68ZM633.816 68.1591C635.347 68.1591 636.376 67.3288 636.724 66.3693L635.884 66.0959C635.591 66.782 634.899 67.3487 633.816 67.3487C632.255 67.3487 631.265 66.2102 631.225 64.4453H636.913V64.0078C636.913 61.4574 635.337 60.2592 633.681 60.2592C631.703 60.2592 630.336 61.9148 630.336 64.2266C630.336 66.5433 631.678 68.1591 633.816 68.1591ZM631.23 63.6648C631.325 62.2429 632.284 61.0646 633.681 61.0646C635.049 61.0646 636.008 62.1932 636.008 63.6648H631.23ZM638.767 68H639.627V66.5831H639.736C640.045 67.2841 640.691 68.1591 642.083 68.1591C643.957 68.1591 645.225 66.5732 645.225 64.2017C645.225 61.8501 643.952 60.2592 642.068 60.2592C640.671 60.2592 640.04 61.1342 639.736 61.8203H639.657V57.8182H638.767V68ZM639.642 64.1868C639.642 62.3572 640.482 61.0646 641.974 61.0646C643.505 61.0646 644.335 62.4268 644.335 64.1868C644.335 65.9666 643.495 67.3487 641.974 67.3487C640.492 67.3487 639.642 66.0312 639.642 64.1868ZM646.889 68H647.774V63.0682C647.774 61.9347 648.644 61.1143 649.837 61.1143C650.071 61.1143 650.29 61.1541 650.369 61.1641V60.2642C650.25 60.2592 650.046 60.2493 649.902 60.2493C648.942 60.2493 648.122 60.7663 647.814 61.5369H647.749V60.3636H646.889V68ZM654.454 68.1591C655.985 68.1591 657.015 67.3288 657.363 66.3693L656.522 66.0959C656.229 66.782 655.538 67.3487 654.454 67.3487C652.893 67.3487 651.904 66.2102 651.864 64.4453H657.551V64.0078C657.551 61.4574 655.976 60.2592 654.32 60.2592C652.341 60.2592 650.974 61.9148 650.974 64.2266C650.974 66.5433 652.316 68.1591 654.454 68.1591ZM651.869 63.6648C651.963 62.2429 652.923 61.0646 654.32 61.0646C655.687 61.0646 656.647 62.1932 656.647 63.6648H651.869ZM659.222 68H660.107V63.0682C660.107 61.9347 660.977 61.1143 662.17 61.1143C662.403 61.1143 662.622 61.1541 662.702 61.1641V60.2642C662.582 60.2592 662.379 60.2493 662.234 60.2493C661.275 60.2493 660.455 60.7663 660.146 61.5369H660.082V60.3636H659.222V68ZM666.667 68.1591C668.646 68.1591 670.028 66.5433 670.028 64.2166C670.028 61.875 668.646 60.2592 666.667 60.2592C664.689 60.2592 663.307 61.875 663.307 64.2166C663.307 66.5433 664.689 68.1591 666.667 68.1591ZM666.667 67.3487C665.082 67.3487 664.197 65.9268 664.197 64.2166C664.197 62.5064 665.082 61.0646 666.667 61.0646C668.253 61.0646 669.138 62.5064 669.138 64.2166C669.138 65.9268 668.253 67.3487 666.667 67.3487Z" fill="white"/>
<path d="M638.29 8.49148H634.054V9.3267H638.29V8.49148ZM643.359 14.1392C645.502 14.1392 646.76 12.2053 646.76 8.90909C646.76 5.62784 645.492 3.67898 643.359 3.67898C641.226 3.67898 639.959 5.62784 639.959 8.90909C639.959 12.2053 641.216 14.1392 643.359 14.1392ZM643.359 13.304C641.793 13.304 640.858 11.6982 640.858 8.90909C640.858 6.125 641.798 4.49929 643.359 4.49929C644.92 4.49929 645.86 6.125 645.86 8.90909C645.86 11.6982 644.925 13.304 643.359 13.304ZM653.654 12.1108C653.654 13.2493 654.36 14.1392 655.538 14.1392C656.701 14.1392 657.407 13.2493 657.407 12.1108V11.6484C657.407 10.5099 656.711 9.62003 655.538 9.62003C654.375 9.62003 653.654 10.5099 653.654 11.6484V12.1108ZM648.523 6.16974C648.523 7.30824 649.229 8.19815 650.407 8.19815C651.571 8.19815 652.277 7.30824 652.277 6.16974V5.70739C652.277 4.56889 651.581 3.67898 650.407 3.67898C649.244 3.67898 648.523 4.56889 648.523 5.70739V6.16974ZM648.98 14H649.865L656.855 3.81818H655.976L648.98 14ZM654.434 11.6484C654.434 10.8977 654.817 10.2962 655.538 10.2962C656.269 10.2962 656.622 10.8977 656.622 11.6484V12.1108C656.622 12.8615 656.254 13.4631 655.538 13.4631C654.807 13.4631 654.434 12.8615 654.434 12.1108V11.6484ZM649.304 5.70739C649.304 4.95668 649.686 4.35511 650.407 4.35511C651.138 4.35511 651.491 4.95668 651.491 5.70739V6.16974C651.491 6.92045 651.123 7.52202 650.407 7.52202C649.677 7.52202 649.304 6.92045 649.304 6.16974V5.70739Z" fill="white"/>
<circle cx="647" cy="37" r="6.5" fill="#F1F1F1" stroke="white"/>
<path d="M794.888 31.0003H801.768V29.2254H797.04V26.7943H801.395V25.0195H797.04V22.5933H801.748V20.8185H794.888V31.0003ZM805.258 26.5855C805.263 25.6012 805.85 25.0245 806.705 25.0245C807.555 25.0245 808.067 25.5813 808.062 26.5159V31.0003H810.18V26.1381C810.18 24.3583 809.136 23.2645 807.545 23.2645C806.411 23.2645 805.591 23.8213 805.248 24.7112H805.159V23.3639H803.14V31.0003H805.258V26.5855ZM815.631 23.3639H814.194V21.5344H812.076V23.3639H811.032V24.9549H812.076V28.9321C812.066 30.4286 813.085 31.1693 814.622 31.1047C815.169 31.0848 815.556 30.9754 815.77 30.9058L815.437 29.3299C815.333 29.3497 815.109 29.3995 814.91 29.3995C814.487 29.3995 814.194 29.2404 814.194 28.6537V24.9549H815.631V23.3639ZM816.731 31.0003H818.848V26.68C818.848 25.7404 819.534 25.0941 820.469 25.0941C820.762 25.0941 821.165 25.1438 821.364 25.2084V23.3291C821.175 23.2844 820.912 23.2546 820.698 23.2546C819.843 23.2546 819.142 23.7517 818.863 24.6963H818.784V23.3639H816.731V31.0003ZM825.304 31.1495C827.193 31.1495 828.466 30.2297 828.764 28.8128L826.805 28.6835C826.591 29.2652 826.044 29.5685 825.338 29.5685C824.28 29.5685 823.608 28.8675 823.608 27.729V27.724H828.809V27.1424C828.809 24.5472 827.238 23.2645 825.219 23.2645C822.972 23.2645 821.515 24.8604 821.515 27.2169C821.515 29.6381 822.952 31.1495 825.304 31.1495ZM823.608 26.4115C823.653 25.5415 824.314 24.8455 825.254 24.8455C826.174 24.8455 826.81 25.5017 826.815 26.4115H823.608ZM833.351 34.023C835.534 34.023 837.085 33.0287 837.085 31.0749V23.3639H834.982V24.6466H834.902C834.619 24.0252 833.997 23.2645 832.72 23.2645C831.044 23.2645 829.627 24.5671 829.627 27.1672C829.627 29.7077 831.004 30.8909 832.725 30.8909C833.943 30.8909 834.624 30.2794 834.902 29.648H834.992V31.045C834.992 32.0941 834.321 32.5017 833.401 32.5017C832.466 32.5017 831.994 32.0941 831.82 31.6317L829.861 31.8952C830.115 33.0983 831.293 34.023 833.351 34.023ZM833.396 29.3C832.357 29.3 831.79 28.4747 831.79 27.1573C831.79 25.8597 832.347 24.9499 833.396 24.9499C834.425 24.9499 835.002 25.8199 835.002 27.1573C835.002 28.5046 834.415 29.3 833.396 29.3ZM840.668 31.1445C841.796 31.1445 842.527 30.6523 842.9 29.9414H842.96V31.0003H844.968V25.8497C844.968 24.0301 843.427 23.2645 841.727 23.2645C839.897 23.2645 838.694 24.1395 838.401 25.5316L840.359 25.6906C840.504 25.1835 840.956 24.8107 841.717 24.8107C842.438 24.8107 842.85 25.1736 842.85 25.8V25.8299C842.85 26.322 842.328 26.3867 841.001 26.5159C839.489 26.6551 838.132 27.1622 838.132 28.8675C838.132 30.3789 839.211 31.1445 840.668 31.1445ZM841.274 29.6828C840.623 29.6828 840.156 29.3796 840.156 28.7979C840.156 28.2013 840.648 27.908 841.394 27.8036C841.856 27.7389 842.612 27.6296 842.865 27.4605V28.2709C842.865 29.0713 842.204 29.6828 841.274 29.6828ZM798.328 48.1495C800.217 48.1495 801.49 47.2297 801.788 45.8128L799.829 45.6835C799.616 46.2652 799.069 46.5685 798.363 46.5685C797.304 46.5685 796.633 45.8675 796.633 44.729V44.724H801.833V44.1424C801.833 41.5472 800.262 40.2645 798.243 40.2645C795.996 40.2645 794.54 41.8604 794.54 44.2169C794.54 46.6381 795.976 48.1495 798.328 48.1495ZM796.633 43.4115C796.677 42.5415 797.339 41.8455 798.278 41.8455C799.198 41.8455 799.834 42.5017 799.839 43.4115H796.633ZM805.053 43.5855C805.058 42.6012 805.645 42.0245 806.5 42.0245C807.35 42.0245 807.862 42.5813 807.857 43.5159V48.0003H809.975V43.1381C809.975 41.3583 808.931 40.2645 807.34 40.2645C806.206 40.2645 805.386 40.8213 805.043 41.7112H804.954V40.3639H802.935V48.0003H805.053V43.5855ZM814.364 48.0003H816.517V43.7943H820.658V42.0195H816.517V39.5933H821.106V37.8185H814.364V48.0003ZM825.153 48.1495C827.042 48.1495 828.315 47.2297 828.614 45.8128L826.655 45.6835C826.441 46.2652 825.894 46.5685 825.188 46.5685C824.129 46.5685 823.458 45.8675 823.458 44.729V44.724H828.658V44.1424C828.658 41.5472 827.087 40.2645 825.069 40.2645C822.822 40.2645 821.365 41.8604 821.365 44.2169C821.365 46.6381 822.802 48.1495 825.153 48.1495ZM823.458 43.4115C823.503 42.5415 824.164 41.8455 825.104 41.8455C826.023 41.8455 826.66 42.5017 826.665 43.4115H823.458ZM829.8 48.0003H831.888V46.7773H831.983C832.276 47.4137 832.917 48.1246 834.15 48.1246C835.89 48.1246 837.248 46.7475 837.248 44.1921C837.248 41.5671 835.831 40.2645 834.155 40.2645C832.878 40.2645 832.266 41.0252 831.983 41.6466H831.918V37.8185H829.8V48.0003ZM831.873 44.1821C831.873 42.8199 832.45 41.9499 833.479 41.9499C834.528 41.9499 835.085 42.8597 835.085 44.1821C835.085 45.5145 834.518 46.4392 833.479 46.4392C832.46 46.4392 831.873 45.5443 831.873 44.1821ZM838.381 48.0003H840.499V43.68C840.499 42.7404 841.185 42.0941 842.119 42.0941C842.413 42.0941 842.815 42.1438 843.014 42.2084V40.3291C842.825 40.2844 842.562 40.2546 842.348 40.2546C841.493 40.2546 840.792 40.7517 840.514 41.6963H840.434V40.3639H838.381V48.0003ZM846.954 48.1495C848.843 48.1495 850.116 47.2297 850.414 45.8128L848.455 45.6835C848.242 46.2652 847.695 46.5685 846.989 46.5685C845.93 46.5685 845.259 45.8675 845.259 44.729V44.724H850.459V44.1424C850.459 41.5472 848.888 40.2645 846.869 40.2645C844.622 40.2645 843.166 41.8604 843.166 44.2169C843.166 46.6381 844.602 48.1495 846.954 48.1495ZM845.259 43.4115C845.303 42.5415 845.965 41.8455 846.904 41.8455C847.824 41.8455 848.46 42.5017 848.465 43.4115H845.259ZM851.561 48.0003H853.679V43.68C853.679 42.7404 854.365 42.0941 855.3 42.0941C855.593 42.0941 855.996 42.1438 856.195 42.2084V40.3291C856.006 40.2844 855.742 40.2546 855.528 40.2546C854.673 40.2546 853.972 40.7517 853.694 41.6963H853.614V40.3639H851.561V48.0003ZM860.104 48.1495C862.421 48.1495 863.863 46.5635 863.863 44.212C863.863 41.8455 862.421 40.2645 860.104 40.2645C857.788 40.2645 856.346 41.8455 856.346 44.212C856.346 46.5635 857.788 48.1495 860.104 48.1495ZM860.114 46.5088C859.045 46.5088 858.498 45.5294 858.498 44.197C858.498 42.8647 859.045 41.8803 860.114 41.8803C861.163 41.8803 861.71 42.8647 861.71 44.197C861.71 45.5294 861.163 46.5088 860.114 46.5088Z" fill="white"/>
<path d="M759.349 28.9937C759.349 27.2047 759.365 25.4104 759.343 23.6281C759.332 22.8902 759.617 22.4177 760.271 22.0753C763.32 20.4739 766.36 18.8548 769.392 17.218C769.626 17.0767 769.893 17.0014 770.166 17C770.438 16.9986 770.707 17.0711 770.942 17.21C773.986 18.8424 777.036 20.4668 780.09 22.0833C780.731 22.4204 781.009 22.8941 781.001 23.6161C780.987 27.2047 780.987 30.7928 781.001 34.3805C781.001 35.1184 780.72 35.5962 780.072 35.9373C777.023 37.5405 773.983 39.1587 770.95 40.792C770.715 40.9323 770.448 41.0064 770.175 41.0064C769.902 41.0064 769.634 40.9323 769.4 40.792C766.336 39.1463 763.267 37.5095 760.194 35.8815C759.603 35.5683 759.339 35.1171 759.344 34.4482C759.359 32.638 759.349 30.8158 759.349 28.9937ZM780.189 23.4741L779.787 23.6772C776.82 25.1936 773.851 26.7088 770.882 28.2226C770.778 28.2601 770.691 28.3317 770.633 28.4259C770.574 28.52 770.549 28.6312 770.561 28.7415C770.57 32.385 770.57 36.0271 770.561 39.6679V40.066C770.701 39.9997 770.799 39.9598 770.892 39.9094C773.825 38.3474 776.754 36.7787 779.689 35.2286C780.057 35.0335 780.206 34.7946 780.205 34.3739C780.191 30.865 780.197 27.3547 780.197 23.8457C780.206 23.7435 780.197 23.636 780.189 23.4741ZM769.778 40.0886V39.6679C769.778 36.9959 769.778 34.3244 769.778 31.6533C769.778 30.6606 769.77 29.6626 769.778 28.6738C769.788 28.5836 769.768 28.4924 769.72 28.4153C769.672 28.3383 769.6 28.2801 769.515 28.2505C769 28.0089 768.5 27.7382 767.995 27.4794C767.521 27.2365 767.047 26.9963 766.531 26.7336V31.1131C766.539 31.2858 766.494 31.4567 766.402 31.6025C766.31 31.7483 766.176 31.8617 766.018 31.9273C765.859 31.9929 765.685 32.0073 765.518 31.9687C765.352 31.9301 765.201 31.8403 765.087 31.7117C764.923 31.555 764.769 31.3879 764.626 31.2113C764.39 30.8968 764.131 30.8132 763.732 30.9101C763.09 31.072 762.663 30.6951 762.662 30.0328C762.662 28.3766 762.662 26.715 762.662 25.0653C762.662 24.8384 762.62 24.7137 762.399 24.6101C761.743 24.2956 761.086 23.9466 760.44 23.6161C760.356 23.5736 760.268 23.5391 760.158 23.49C760.149 23.6135 760.137 23.6997 760.137 23.786C760.137 27.3525 760.137 30.918 760.137 34.4827C760.126 34.6302 760.162 34.7775 760.238 34.9035C760.315 35.0296 760.429 35.128 760.564 35.1848C761.978 35.9253 763.384 36.6805 764.793 37.4303L769.778 40.0886ZM765.747 31.1967V30.7986C765.747 29.4515 765.747 28.1045 765.747 26.7575C765.747 26.1257 766.01 25.6957 766.574 25.4157C768.864 24.2478 771.15 23.0764 773.434 21.9014C774.201 21.5099 774.966 21.1145 775.779 20.6964C775.097 20.3328 774.466 20.0023 773.833 19.6533C773.761 19.6074 773.678 19.5831 773.593 19.5831C773.508 19.5831 773.425 19.6074 773.353 19.6533C770.193 21.275 767.03 22.8924 763.863 24.5053C763.727 24.5598 763.612 24.6572 763.535 24.7829C763.459 24.9087 763.424 25.0561 763.436 25.2034C763.45 26.7495 763.436 28.2956 763.436 29.8404C763.436 29.9346 763.448 30.0302 763.457 30.147C763.574 30.1315 763.69 30.1098 763.804 30.0819C764.274 29.936 764.651 30.0541 764.975 30.435C765.2 30.6964 765.462 30.9154 765.747 31.1914V31.1967ZM779.74 22.8105C778.721 22.2677 777.76 21.7488 776.79 21.2511C776.727 21.2305 776.66 21.2228 776.594 21.2285C776.528 21.2342 776.464 21.2532 776.405 21.2843C773.366 22.8273 770.332 24.3761 767.302 25.9306C767.223 25.9718 767.148 26.0249 767.039 26.0939C767.958 26.5637 768.836 26.9977 769.699 27.4648C769.842 27.5524 770.007 27.5987 770.174 27.5987C770.342 27.5987 770.506 27.5524 770.649 27.4648C772.431 26.5358 774.223 25.6267 776.012 24.711C777.23 24.0912 778.46 23.4595 779.74 22.8052V22.8105ZM760.608 22.8105C761.289 23.1582 761.933 23.4622 762.548 23.8152C762.894 24.0129 763.158 24.0103 763.523 23.8152C766.461 22.285 769.414 20.7853 772.361 19.275C772.472 19.218 772.579 19.1556 772.73 19.072C771.981 18.6738 771.273 18.3076 770.578 17.9187C770.453 17.8425 770.309 17.8031 770.163 17.805C770.016 17.8069 769.874 17.8499 769.75 17.9293C768.056 18.8437 766.355 19.7435 764.657 20.6473L760.608 22.8105Z" fill="white"/>
<path d="M765.445 42.577C765.037 42.5927 764.642 42.7283 764.309 42.9671C763.417 43.6042 762.531 44.2492 761.636 44.8849C761.491 44.9897 761.472 45.0693 761.58 45.2206C762.353 46.3098 763.122 47.4024 763.887 48.4987C763.997 48.6579 764.085 48.6818 764.236 48.557C764.681 48.1868 765.177 47.9851 765.765 48.1151C765.965 48.1602 766.159 48.216 766.362 48.2677L771.756 49.6586C771.907 49.6936 772.063 49.6932 772.214 49.6573C772.364 49.6214 772.505 49.551 772.624 49.4515C774.031 48.4456 775.439 47.4414 776.848 46.4389C777.614 45.8922 778.381 45.3445 779.148 44.7959C779.312 44.6874 779.44 44.5301 779.512 44.3454C779.585 44.1608 779.599 43.9579 779.553 43.7647C779.522 43.5837 779.44 43.4158 779.315 43.2815C779.191 43.1471 779.031 43.0522 778.855 43.0083C778.703 42.9638 778.542 42.9567 778.387 42.9877C778.231 43.0186 778.085 43.0866 777.961 43.1861C777.23 43.7064 776.496 44.2226 775.762 44.7415C775.72 44.7707 775.679 44.8012 775.63 44.8304C775.406 44.9844 775.222 44.9804 775.105 44.8172C774.988 44.6539 775.044 44.4695 775.259 44.3129C775.437 44.1801 775.619 44.058 775.799 43.9306C776.406 43.5006 777.009 43.0667 777.621 42.6446C778.651 41.9293 779.992 42.4947 780.185 43.7369C780.287 44.4004 780.031 44.9433 779.486 45.3294C777.63 46.6566 775.773 47.9837 773.915 49.3109C773.662 49.49 773.397 49.6533 773.161 49.851C772.583 50.3381 771.96 50.3951 771.243 50.2C769.388 49.6944 767.522 49.2326 765.659 48.7548C765.28 48.6579 764.682 48.8689 764.478 49.1795C764.467 49.208 764.463 49.2384 764.465 49.2687C764.468 49.299 764.477 49.3283 764.492 49.3547C764.548 49.4568 764.623 49.5471 764.692 49.6466C764.831 49.8616 764.815 50.0182 764.617 50.1669C764.27 50.4323 763.917 50.6805 763.566 50.9286C763.532 50.9573 763.492 50.9785 763.45 50.9909C763.407 51.0033 763.362 51.0066 763.318 51.0006C763.274 50.9946 763.232 50.9795 763.194 50.9561C763.156 50.9328 763.123 50.9017 763.098 50.8649C762.997 50.7176 763.036 50.5345 763.211 50.4031C763.427 50.2385 763.648 50.0779 763.867 49.9267C763.998 49.8391 763.998 49.7581 763.912 49.6373C762.785 48.0368 761.661 46.4358 760.538 44.8344C760.448 44.7017 760.377 44.6937 760.255 44.7866C760.027 44.9605 759.793 45.1264 759.557 45.2896C759.353 45.4316 759.163 45.4117 759.055 45.2458C758.948 45.0799 759 44.9101 759.187 44.7707C759.537 44.5141 759.889 44.2611 760.245 44.0116C760.484 43.8444 760.626 43.8789 760.803 44.1151C761.088 44.5013 761.086 44.5 761.483 44.2133C762.293 43.6267 763.102 43.0361 763.92 42.4588C764.253 42.2138 764.64 42.0526 765.047 41.9885C765.455 41.9243 765.871 41.9591 766.263 42.0899C768.479 42.7535 770.699 43.3958 772.918 44.0434C773.283 44.1381 773.606 44.3565 773.831 44.6622C774.057 44.9679 774.172 45.3425 774.157 45.7236C774.139 46.1019 773.988 46.4611 773.731 46.7369C773.475 47.0128 773.129 47.1871 772.757 47.2286C772.531 47.2543 772.303 47.2385 772.083 47.1821C770.926 46.9087 769.772 46.6208 768.618 46.3367L768.555 46.3182C768.326 46.2465 768.228 46.1058 768.277 45.92C768.326 45.7342 768.488 45.6546 768.719 45.709C769.147 45.8112 769.574 45.9214 770.001 46.0262C770.757 46.212 771.512 46.4004 772.268 46.5783C772.834 46.711 773.362 46.4084 773.496 45.8829C773.63 45.3573 773.321 44.8318 772.743 44.6606C771.168 44.1947 769.593 43.7316 768.01 43.275C767.307 43.0693 766.603 42.8596 765.897 42.6592C765.748 42.623 765.597 42.5955 765.445 42.577V42.577Z" fill="white"/>
</svg>
