<svg width="366" height="82" viewBox="0 0 366 82" fill="none" xmlns="http://www.w3.org/2000/svg">
<path d="M46.7131 7.08665H42.8438V8.19034H46.7131V7.08665ZM51.0871 12.1193C52.8683 12.1193 54.1765 11.054 54.1723 9.60511C54.1765 8.50142 53.5075 7.70881 52.3484 7.52983V7.46165C53.2604 7.22727 53.8527 6.51136 53.8484 5.53125C53.8527 4.24858 52.8001 3.15341 51.1212 3.15341C49.5189 3.15341 48.2319 4.12074 48.1893 5.53977H49.4635C49.4933 4.73864 50.2476 4.25284 51.1041 4.25284C51.9947 4.25284 52.5785 4.79403 52.5743 5.59943C52.5785 6.44318 51.901 6.99716 50.9337 6.99716H50.1964V8.07102H50.9337C52.1439 8.07102 52.8427 8.68466 52.8427 9.5625C52.8427 10.4105 52.1055 10.9858 51.0785 10.9858C50.1325 10.9858 49.3953 10.5 49.3442 9.72443H48.0061C48.0615 11.1477 49.3229 12.1193 51.0871 12.1193ZM58.5814 12.1449C60.5971 12.1449 61.7775 10.5 61.7775 7.64062C61.7775 4.80256 60.58 3.15341 58.5814 3.15341C56.5786 3.15341 55.3854 4.7983 55.3812 7.64062C55.3812 10.4957 56.5615 12.1406 58.5814 12.1449ZM58.5814 11.0071C57.401 11.0071 56.6894 9.82244 56.6894 7.64062C56.6937 5.46733 57.4053 4.26989 58.5814 4.26989C59.7533 4.26989 60.4692 5.46733 60.4692 7.64062C60.4692 9.82244 59.7576 11.0071 58.5814 11.0071ZM67.6046 10.3636C67.6088 11.348 68.2267 12.179 69.3816 12.179C70.5236 12.179 71.15 11.348 71.15 10.3636V9.90341C71.15 8.91477 70.5407 8.08807 69.3816 8.08807C68.2438 8.08807 67.6088 8.91903 67.6046 9.90341V10.3636ZM63.2154 5.36932C63.2154 6.35369 63.8375 7.18466 64.9924 7.18466C66.1301 7.18466 66.7608 6.35795 66.7566 5.36932V4.90909C66.7608 3.92045 66.1472 3.09375 64.9924 3.09375C63.8588 3.09375 63.2154 3.92045 63.2154 4.90909V5.36932ZM63.5733 12H64.5918L70.5918 3.27273H69.5733L63.5733 12ZM68.5975 9.90341C68.6017 9.41335 68.8148 8.94034 69.3816 8.94034C69.9696 8.94034 70.1529 9.41335 70.1529 9.90341V10.3636C70.1529 10.8537 69.9526 11.3267 69.3816 11.3267C68.802 11.3267 68.6017 10.8494 68.5975 10.3636V9.90341ZM64.2125 4.90909C64.2125 4.4233 64.4256 3.94602 64.9924 3.94602C65.5804 3.94602 65.7637 4.41903 65.7637 4.90909V5.36932C65.7637 5.85938 65.5634 6.33239 64.9924 6.33239C64.4128 6.33239 64.2125 5.85938 64.2125 5.36932V4.90909Z" fill="#30AAAA"/>
<path d="M29.0327 60H34.5554V58.8665H30.3495V56.1946H34.2188V55.0653H30.3495V52.4062H34.5043V51.2727H29.0327V60ZM37.8257 60.1449C38.9081 60.1449 39.5175 59.5952 39.7604 59.1051H39.8115V60H41.0559V55.6534C41.0559 53.7486 39.5559 53.3693 38.5161 53.3693C37.3314 53.3693 36.2405 53.8466 35.8144 55.0398L37.0118 55.3125C37.1993 54.848 37.6766 54.4006 38.5331 54.4006C39.3556 54.4006 39.7774 54.831 39.7774 55.5724V55.6023C39.7774 56.0668 39.3002 56.0582 38.124 56.1946C36.884 56.3395 35.6141 56.6634 35.6141 58.1506C35.6141 59.4375 36.5814 60.1449 37.8257 60.1449ZM38.1027 59.1222C37.3826 59.1222 36.8627 58.7983 36.8627 58.1676C36.8627 57.4858 37.4678 57.2429 38.205 57.1449C38.6184 57.0895 39.5985 56.9787 39.7817 56.7955V57.6392C39.7817 58.4148 39.1638 59.1222 38.1027 59.1222ZM42.5129 60H43.7871V56.0028C43.7871 55.1463 44.4476 54.5284 45.351 54.5284C45.6152 54.5284 45.9135 54.5753 46.0158 54.6051V53.3864C45.8879 53.3693 45.6365 53.3565 45.4746 53.3565C44.7075 53.3565 44.0513 53.7912 43.8127 54.4943H43.7445V53.4545H42.5129V60ZM48.1526 51.2727H46.8784V60H48.1526V51.2727ZM50.4321 62.4545C51.4846 62.4545 52.1494 61.9048 52.5287 60.8736L55.2346 53.4673L53.8582 53.4545L52.2006 58.5341H52.1324L50.4747 53.4545H49.1111L51.506 60.0852L51.3483 60.5199C51.0244 61.3892 50.5685 61.4616 49.8696 61.2699L49.5628 62.3139C49.7162 62.3821 50.0486 62.4545 50.4321 62.4545ZM59.1311 60H60.4052V57.6776L61.0402 57.0426L63.2646 60H64.8285L61.999 56.2628L64.6495 53.4545H63.124L60.516 56.2244H60.4052V51.2727H59.1311V60ZM68.0583 60.1321C69.9035 60.1321 71.1095 58.7812 71.1095 56.7571C71.1095 54.7202 69.9035 53.3693 68.0583 53.3693C66.2132 53.3693 65.0072 54.7202 65.0072 56.7571C65.0072 58.7812 66.2132 60.1321 68.0583 60.1321ZM68.0626 59.0625C66.8566 59.0625 66.2941 58.0099 66.2941 56.7528C66.2941 55.5 66.8566 54.4347 68.0626 54.4347C69.26 54.4347 69.8225 55.5 69.8225 56.7528C69.8225 58.0099 69.26 59.0625 68.0626 59.0625ZM73.5658 51.2727H72.2917V60H73.5658V51.2727ZM75.8454 62.4545C76.8979 62.4545 77.5627 61.9048 77.942 60.8736L80.6479 53.4673L79.2715 53.4545L77.6138 58.5341H77.5457L75.888 53.4545H74.5243L76.9192 60.0852L76.7616 60.5199C76.4377 61.3892 75.9817 61.4616 75.2829 61.2699L74.9761 62.3139C75.1295 62.3821 75.4618 62.4545 75.8454 62.4545ZM84.1952 60.1321C85.6228 60.1321 86.6327 59.429 86.9225 58.3636L85.7165 58.1463C85.4864 58.7642 84.9324 59.0795 84.208 59.0795C83.1171 59.0795 82.3841 58.3722 82.35 57.1108H87.0035V56.6591C87.0035 54.294 85.5887 53.3693 84.1057 53.3693C82.2819 53.3693 81.0802 54.7585 81.0802 56.7699C81.0802 58.8026 82.2648 60.1321 84.1952 60.1321ZM82.3543 56.1562C82.4054 55.2273 83.0787 54.4219 84.1142 54.4219C85.1029 54.4219 85.7506 55.1548 85.7549 56.1562H82.3543ZM88.1772 60H89.4513V56.0028C89.4513 55.1463 90.1118 54.5284 91.0152 54.5284C91.2794 54.5284 91.5777 54.5753 91.68 54.6051V53.3864C91.5522 53.3693 91.3007 53.3565 91.1388 53.3565C90.3718 53.3565 89.7155 53.7912 89.4769 54.4943H89.4087V53.4545H88.1772V60ZM30.091 70.6364C30.091 72.6776 30.6279 74.4929 31.591 76.0909H32.2813C31.4546 74.7571 30.8751 72.6009 30.8751 70.6364C30.8751 68.6761 31.4504 66.5199 32.2813 65.1818H31.591C30.6279 66.7713 30.091 68.5909 30.091 70.6364ZM36.4103 75C39.0353 75 40.531 73.3594 40.5353 70.6151C40.5353 67.9006 39.0609 66.2727 36.5637 66.2727H33.8535V75H36.4103ZM34.6503 74.2841V66.9886H36.5168C38.6347 66.9886 39.7597 68.3565 39.764 70.6151C39.764 72.8949 38.6134 74.2841 36.3634 74.2841H34.6503ZM42.0776 75H42.8404V68.4545H42.0776V75ZM42.4654 67.3295C42.7765 67.3295 43.0364 67.0824 43.0364 66.7841C43.0364 66.4858 42.7765 66.2386 42.4654 66.2386C42.1543 66.2386 41.8986 66.4858 41.8986 66.7841C41.8986 67.0824 42.1543 67.3295 42.4654 67.3295ZM47.1632 75.1364C48.5269 75.1364 49.4857 74.2756 49.6604 73.0909H48.8934C48.7186 73.9261 48.0326 74.4418 47.1632 74.4418C45.8806 74.4418 45.0326 73.3253 45.0326 71.7315C45.0326 70.1463 45.9061 69.0554 47.1632 69.0554C48.0965 69.0554 48.7272 69.6562 48.8891 70.3977H49.6561C49.4772 69.1832 48.463 68.3651 47.1505 68.3651C45.4374 68.3651 44.2698 69.7884 44.2698 71.7571C44.2698 73.7088 45.4033 75.1364 47.1632 75.1364ZM51.0546 75H51.8174V68.4545H51.0546V75ZM51.4424 67.3295C51.7535 67.3295 52.0134 67.0824 52.0134 66.7841C52.0134 66.4858 51.7535 66.2386 51.4424 66.2386C51.1313 66.2386 50.8757 66.4858 50.8757 66.7841C50.8757 67.0824 51.1313 67.3295 51.4424 67.3295ZM56.2298 75.1364C57.5423 75.1364 58.4244 74.4247 58.7227 73.6023L58.0025 73.3679C57.7511 73.956 57.1587 74.4418 56.2298 74.4418C54.8917 74.4418 54.0437 73.4659 54.0096 71.9531H58.8846V71.5781C58.8846 69.392 57.5337 68.3651 56.1147 68.3651C54.4187 68.3651 53.2468 69.7841 53.2468 71.7656C53.2468 73.7514 54.3974 75.1364 56.2298 75.1364ZM54.0138 71.2841C54.0948 70.0653 54.9173 69.0554 56.1147 69.0554C57.2866 69.0554 58.109 70.0227 58.109 71.2841H54.0138ZM60.3161 75H61.0746V70.8068C61.0746 69.7884 61.7522 69.0639 62.6599 69.0639C63.5547 69.0639 64.0746 69.6605 64.0746 70.5469V75H64.8502V70.6918C64.8502 69.75 65.4127 69.0639 66.4099 69.0639C67.2749 69.0639 67.8502 69.5838 67.8502 70.6151V75H68.6087V70.6151C68.6087 69.1491 67.8545 68.3693 66.64 68.3693C65.6854 68.3693 64.9951 68.8338 64.7011 69.5582H64.6457C64.3559 68.8168 63.7806 68.3693 62.8772 68.3693C62.0207 68.3693 61.3815 68.7827 61.1215 69.4602H61.0533V68.4545H60.3161V75ZM70.5346 75H71.2718V73.7855H71.3655C71.6297 74.3864 72.1837 75.1364 73.3769 75.1364C74.9834 75.1364 76.0701 73.777 76.0701 71.7443C76.0701 69.7287 74.9792 68.3651 73.3641 68.3651C72.1667 68.3651 71.6255 69.1151 71.3655 69.7031H71.2973V66.2727H70.5346V75ZM71.2846 71.7315C71.2846 70.1634 72.0047 69.0554 73.2831 69.0554C74.5956 69.0554 75.3073 70.223 75.3073 71.7315C75.3073 73.2571 74.5871 74.4418 73.2831 74.4418C72.0133 74.4418 71.2846 73.3125 71.2846 71.7315ZM77.4963 75H78.2548V70.7727C78.2548 69.8011 79.0005 69.098 80.0233 69.098C80.2235 69.098 80.411 69.1321 80.4792 69.1406V68.3693C80.3769 68.3651 80.2022 68.3565 80.0787 68.3565C79.2562 68.3565 78.5531 68.7997 78.2889 69.4602H78.2335V68.4545H77.4963V75ZM83.9807 75.1364C85.2932 75.1364 86.1753 74.4247 86.4736 73.6023L85.7534 73.3679C85.502 73.956 84.9097 74.4418 83.9807 74.4418C82.6426 74.4418 81.7946 73.4659 81.7605 71.9531H86.6355V71.5781C86.6355 69.392 85.2847 68.3651 83.8656 68.3651C82.1696 68.3651 80.9977 69.7841 80.9977 71.7656C80.9977 73.7514 82.1483 75.1364 83.9807 75.1364ZM81.7648 71.2841C81.8458 70.0653 82.6682 69.0554 83.8656 69.0554C85.0375 69.0554 85.86 70.0227 85.86 71.2841H81.7648ZM89.908 71.3182C89.908 69.277 89.371 67.4616 88.408 65.8636H87.7176C88.5443 67.1974 89.1239 69.3537 89.1239 71.3182C89.1239 73.2784 88.5486 75.4347 87.7176 76.7727H88.408C89.371 75.1832 89.908 73.3636 89.908 71.3182Z" fill="#30AAAA"/>
<path d="M127.032 60H132.179V59.2841H127.829V55.9901H131.826V55.2741H127.829V51.9886H132.094V51.2727H127.032V60ZM134.518 55.9091C134.518 54.767 135.268 54.0639 136.299 54.0639C137.304 54.0639 137.952 54.7372 137.952 55.8068V60H138.711V55.7599C138.711 54.2088 137.812 53.3693 136.491 53.3693C135.532 53.3693 134.871 53.8125 134.564 54.4815H134.496V53.4545H133.759V60H134.518V55.9091ZM143.115 60.1364C144.427 60.1364 145.309 59.4247 145.607 58.6023L144.887 58.3679C144.636 58.956 144.044 59.4418 143.115 59.4418C141.776 59.4418 140.928 58.4659 140.894 56.9531H145.769V56.5781C145.769 54.392 144.419 53.3651 142.999 53.3651C141.303 53.3651 140.132 54.7841 140.132 56.7656C140.132 58.7514 141.282 60.1364 143.115 60.1364ZM140.899 56.2841C140.98 55.0653 141.802 54.0554 142.999 54.0554C144.171 54.0554 144.994 55.0227 144.994 56.2841H140.899ZM147.201 60H147.959V55.7727C147.959 54.8011 148.705 54.098 149.728 54.098C149.928 54.098 150.116 54.1321 150.184 54.1406V53.3693C150.082 53.3651 149.907 53.3565 149.783 53.3565C148.961 53.3565 148.258 53.7997 147.993 54.4602H147.938V53.4545H147.201V60ZM153.583 60.1364C155.279 60.1364 156.464 58.7514 156.464 56.7571C156.464 54.75 155.279 53.3651 153.583 53.3651C151.887 53.3651 150.702 54.75 150.702 56.7571C150.702 58.7514 151.887 60.1364 153.583 60.1364ZM153.583 59.4418C152.224 59.4418 151.465 58.223 151.465 56.7571C151.465 55.2912 152.224 54.0554 153.583 54.0554C154.942 54.0554 155.701 55.2912 155.701 56.7571C155.701 58.223 154.942 59.4418 153.583 59.4418Z" fill="white"/>
<path d="M130.534 7.27841H126.903V7.99432H130.534V7.27841ZM134.862 3.27273H134.031L131.969 4.64062V5.46733L134.014 4.10795H134.065V12H134.862V3.27273ZM139.983 12.1193C141.82 12.1193 142.898 10.4616 142.898 7.63636C142.898 4.82386 141.811 3.15341 139.983 3.15341C138.155 3.15341 137.068 4.82386 137.068 7.63636C137.068 10.4616 138.146 12.1193 139.983 12.1193ZM139.983 11.4034C138.641 11.4034 137.84 10.027 137.84 7.63636C137.84 5.25 138.645 3.85653 139.983 3.85653C141.321 3.85653 142.127 5.25 142.127 7.63636C142.127 10.027 141.325 11.4034 139.983 11.4034ZM148.807 10.3807C148.807 11.3565 149.412 12.1193 150.422 12.1193C151.419 12.1193 152.024 11.3565 152.024 10.3807V9.98438C152.024 9.00852 151.428 8.24574 150.422 8.24574C149.425 8.24574 148.807 9.00852 148.807 9.98438V10.3807ZM144.409 5.28835C144.409 6.2642 145.014 7.02699 146.024 7.02699C147.021 7.02699 147.627 6.2642 147.627 5.28835V4.89205C147.627 3.91619 147.03 3.15341 146.024 3.15341C145.027 3.15341 144.409 3.91619 144.409 4.89205V5.28835ZM144.801 12H145.56L151.551 3.27273H150.797L144.801 12ZM149.476 9.98438C149.476 9.34091 149.804 8.82528 150.422 8.82528C151.048 8.82528 151.351 9.34091 151.351 9.98438V10.3807C151.351 11.0241 151.036 11.5398 150.422 11.5398C149.796 11.5398 149.476 11.0241 149.476 10.3807V9.98438ZM145.078 4.89205C145.078 4.24858 145.406 3.73295 146.024 3.73295C146.651 3.73295 146.953 4.24858 146.953 4.89205V5.28835C146.953 5.93182 146.638 6.44744 146.024 6.44744C145.398 6.44744 145.078 5.93182 145.078 5.28835V4.89205Z" fill="white"/>
<path d="M252.354 30.3536C252.549 30.1583 252.549 29.8417 252.354 29.6465L249.172 26.4645C248.976 26.2692 248.66 26.2692 248.464 26.4645C248.269 26.6597 248.269 26.9763 248.464 27.1716L251.293 30L248.464 32.8284C248.269 33.0237 248.269 33.3403 248.464 33.5356C248.66 33.7308 248.976 33.7308 249.172 33.5356L252.354 30.3536ZM-4.37114e-08 30.5L252 30.5L252 29.5L4.37114e-08 29.5L-4.37114e-08 30.5Z" fill="white"/>
<circle cx="60" cy="30" r="10" fill="#30AAAA"/>
<circle cx="142" cy="30" r="6.5" fill="#F1F1F1" stroke="white"/>
<path d="M201.828 60H202.625V55.9901H206.482V55.2741H202.625V51.9886H206.878V51.2727H201.828V60ZM210.628 60.1364C211.94 60.1364 212.822 59.4247 213.121 58.6023L212.4 58.3679C212.149 58.956 211.557 59.4418 210.628 59.4418C209.29 59.4418 208.442 58.4659 208.408 56.9531H213.283V56.5781C213.283 54.392 211.932 53.3651 210.513 53.3651C208.817 53.3651 207.645 54.7841 207.645 56.7656C207.645 58.7514 208.795 60.1364 210.628 60.1364ZM208.412 56.2841C208.493 55.0653 209.315 54.0554 210.513 54.0554C211.685 54.0554 212.507 55.0227 212.507 56.2841H208.412ZM214.872 60H215.609V58.7855H215.703C215.967 59.3864 216.521 60.1364 217.714 60.1364C219.321 60.1364 220.407 58.777 220.407 56.7443C220.407 54.7287 219.316 53.3651 217.701 53.3651C216.504 53.3651 215.963 54.1151 215.703 54.7031H215.635V51.2727H214.872V60ZM215.622 56.7315C215.622 55.1634 216.342 54.0554 217.62 54.0554C218.933 54.0554 219.644 55.223 219.644 56.7315C219.644 58.2571 218.924 59.4418 217.62 59.4418C216.35 59.4418 215.622 58.3125 215.622 56.7315ZM221.833 60H222.592V55.7727C222.592 54.8011 223.338 54.098 224.36 54.098C224.561 54.098 224.748 54.1321 224.816 54.1406V53.3693C224.714 53.3651 224.539 53.3565 224.416 53.3565C223.593 53.3565 222.89 53.7997 222.626 54.4602H222.571V53.4545H221.833V60ZM228.318 60.1364C229.63 60.1364 230.512 59.4247 230.811 58.6023L230.091 58.3679C229.839 58.956 229.247 59.4418 228.318 59.4418C226.98 59.4418 226.132 58.4659 226.098 56.9531H230.973V56.5781C230.973 54.392 229.622 53.3651 228.203 53.3651C226.507 53.3651 225.335 54.7841 225.335 56.7656C225.335 58.7514 226.485 60.1364 228.318 60.1364ZM226.102 56.2841C226.183 55.0653 227.005 54.0554 228.203 54.0554C229.375 54.0554 230.197 55.0227 230.197 56.2841H226.102ZM232.404 60H233.163V55.7727C233.163 54.8011 233.908 54.098 234.931 54.098C235.132 54.098 235.319 54.1321 235.387 54.1406V53.3693C235.285 53.3651 235.11 53.3565 234.987 53.3565C234.164 53.3565 233.461 53.7997 233.197 54.4602H233.141V53.4545H232.404V60ZM238.786 60.1364C240.482 60.1364 241.667 58.7514 241.667 56.7571C241.667 54.75 240.482 53.3651 238.786 53.3651C237.09 53.3651 235.906 54.75 235.906 56.7571C235.906 58.7514 237.09 60.1364 238.786 60.1364ZM238.786 59.4418C237.427 59.4418 236.668 58.223 236.668 56.7571C236.668 55.2912 237.427 54.0554 238.786 54.0554C240.146 54.0554 240.904 55.2912 240.904 56.7571C240.904 58.223 240.146 59.4418 238.786 59.4418Z" fill="white"/>
<path d="M212.534 7.27841H208.903V7.99432H212.534V7.27841ZM216.879 12.1193C218.716 12.1193 219.794 10.4616 219.794 7.63636C219.794 4.82386 218.707 3.15341 216.879 3.15341C215.051 3.15341 213.965 4.82386 213.965 7.63636C213.965 10.4616 215.043 12.1193 216.879 12.1193ZM216.879 11.4034C215.537 11.4034 214.736 10.027 214.736 7.63636C214.736 5.25 215.541 3.85653 216.879 3.85653C218.217 3.85653 219.023 5.25 219.023 7.63636C219.023 10.027 218.222 11.4034 216.879 11.4034ZM225.703 10.3807C225.703 11.3565 226.308 12.1193 227.318 12.1193C228.315 12.1193 228.921 11.3565 228.921 10.3807V9.98438C228.921 9.00852 228.324 8.24574 227.318 8.24574C226.321 8.24574 225.703 9.00852 225.703 9.98438V10.3807ZM221.306 5.28835C221.306 6.2642 221.911 7.02699 222.921 7.02699C223.918 7.02699 224.523 6.2642 224.523 5.28835V4.89205C224.523 3.91619 223.926 3.15341 222.921 3.15341C221.923 3.15341 221.306 3.91619 221.306 4.89205V5.28835ZM221.698 12H222.456L228.448 3.27273H227.693L221.698 12ZM226.372 9.98438C226.372 9.34091 226.7 8.82528 227.318 8.82528C227.945 8.82528 228.247 9.34091 228.247 9.98438V10.3807C228.247 11.0241 227.932 11.5398 227.318 11.5398C226.692 11.5398 226.372 11.0241 226.372 10.3807V9.98438ZM221.975 4.89205C221.975 4.24858 222.303 3.73295 222.921 3.73295C223.547 3.73295 223.85 4.24858 223.85 4.89205V5.28835C223.85 5.93182 223.534 6.44744 222.921 6.44744C222.294 6.44744 221.975 5.93182 221.975 5.28835V4.89205Z" fill="white"/>
<circle cx="222" cy="30" r="6.5" fill="#F1F1F1" stroke="white"/>
<path d="M297.822 29H304.211V27.3519H299.821V25.0945H303.865V23.4464H299.821V21.1935H304.192V19.5455H297.822V29ZM307.451 24.9006C307.456 23.9865 308.001 23.451 308.795 23.451C309.584 23.451 310.06 23.968 310.055 24.8359V29H312.022V24.4851C312.022 22.8324 311.052 21.8168 309.575 21.8168C308.522 21.8168 307.761 22.3338 307.442 23.1602H307.359V21.9091H305.485V29H307.451V24.9006ZM317.083 21.9091H315.749V20.2102H313.783V21.9091H312.813V23.3864H313.783V27.0795C313.773 28.4691 314.72 29.157 316.146 29.0969C316.654 29.0785 317.014 28.9769 317.213 28.9123L316.903 27.4489C316.806 27.4673 316.599 27.5135 316.414 27.5135C316.022 27.5135 315.749 27.3658 315.749 26.821V23.3864H317.083V21.9091ZM318.104 29H320.071V24.9883C320.071 24.1158 320.708 23.5156 321.576 23.5156C321.848 23.5156 322.222 23.5618 322.407 23.6218V21.8768C322.232 21.8352 321.987 21.8075 321.788 21.8075C320.994 21.8075 320.343 22.2692 320.085 23.1463H320.011V21.9091H318.104V29ZM326.065 29.1385C327.819 29.1385 329.001 28.2844 329.278 26.9688L327.459 26.8487C327.261 27.3888 326.753 27.6705 326.098 27.6705C325.114 27.6705 324.491 27.0195 324.491 25.9624V25.9577H329.32V25.4176C329.32 23.0078 327.861 21.8168 325.987 21.8168C323.9 21.8168 322.547 23.2987 322.547 25.4869C322.547 27.7351 323.882 29.1385 326.065 29.1385ZM324.491 24.739C324.533 23.9311 325.147 23.2848 326.019 23.2848C326.873 23.2848 327.464 23.8942 327.469 24.739H324.491ZM333.538 31.8068C335.564 31.8068 337.005 30.8835 337.005 29.0692V21.9091H335.052V23.1001H334.978C334.715 22.5231 334.138 21.8168 332.952 21.8168C331.396 21.8168 330.08 23.0263 330.08 25.4407C330.08 27.7997 331.359 28.8984 332.956 28.8984C334.087 28.8984 334.72 28.3306 334.978 27.7443H335.061V29.0415C335.061 30.0156 334.438 30.3942 333.584 30.3942C332.716 30.3942 332.278 30.0156 332.116 29.5863L330.297 29.831C330.532 30.9482 331.627 31.8068 333.538 31.8068ZM333.579 27.4212C332.615 27.4212 332.088 26.6548 332.088 25.4315C332.088 24.2266 332.605 23.3817 333.579 23.3817C334.535 23.3817 335.07 24.1896 335.07 25.4315C335.07 26.6825 334.526 27.4212 333.579 27.4212ZM340.332 29.1339C341.38 29.1339 342.058 28.6768 342.405 28.0167H342.46V29H344.325V24.2173C344.325 22.5277 342.894 21.8168 341.315 21.8168C339.616 21.8168 338.499 22.6293 338.227 23.9219L340.046 24.0696C340.179 23.5987 340.6 23.2525 341.306 23.2525C341.975 23.2525 342.358 23.5895 342.358 24.1712V24.1989C342.358 24.6559 341.874 24.7159 340.641 24.8359C339.238 24.9652 337.977 25.4361 337.977 27.0195C337.977 28.4229 338.979 29.1339 340.332 29.1339ZM340.895 27.7766C340.29 27.7766 339.856 27.495 339.856 26.9549C339.856 26.4009 340.313 26.1286 341.006 26.0316C341.435 25.9716 342.137 25.87 342.372 25.7131V26.4656C342.372 27.2088 341.758 27.7766 340.895 27.7766ZM301.016 45.1385C302.771 45.1385 303.952 44.2844 304.229 42.9688L302.411 42.8487C302.212 43.3888 301.704 43.6705 301.049 43.6705C300.065 43.6705 299.442 43.0195 299.442 41.9624V41.9577H304.271V41.4176C304.271 39.0078 302.812 37.8168 300.938 37.8168C298.851 37.8168 297.499 39.2987 297.499 41.4869C297.499 43.7351 298.833 45.1385 301.016 45.1385ZM299.442 40.739C299.484 39.9311 300.098 39.2848 300.97 39.2848C301.824 39.2848 302.415 39.8942 302.42 40.739H299.442ZM307.261 40.9006C307.266 39.9865 307.81 39.451 308.604 39.451C309.394 39.451 309.869 39.968 309.865 40.8359V45H311.831V40.4851C311.831 38.8324 310.862 37.8168 309.385 37.8168C308.332 37.8168 307.57 38.3338 307.252 39.1602H307.169V37.9091H305.294V45H307.261V40.9006ZM315.907 45H317.906V41.0945H321.751V39.4464H317.906V37.1935H322.167V35.5455H315.907V45ZM325.926 45.1385C327.68 45.1385 328.862 44.2844 329.139 42.9688L327.32 42.8487C327.121 43.3888 326.613 43.6705 325.958 43.6705C324.975 43.6705 324.351 43.0195 324.351 41.9624V41.9577H329.18V41.4176C329.18 39.0078 327.721 37.8168 325.847 37.8168C323.76 37.8168 322.408 39.2987 322.408 41.4869C322.408 43.7351 323.742 45.1385 325.926 45.1385ZM324.351 40.739C324.393 39.9311 325.007 39.2848 325.879 39.2848C326.733 39.2848 327.324 39.8942 327.329 40.739H324.351ZM330.24 45H332.179V43.8643H332.267C332.539 44.4553 333.135 45.1154 334.28 45.1154C335.896 45.1154 337.156 43.8366 337.156 41.4638C337.156 39.0263 335.84 37.8168 334.285 37.8168C333.098 37.8168 332.53 38.5231 332.267 39.1001H332.207V35.5455H330.24V45ZM332.166 41.4545C332.166 40.1896 332.701 39.3817 333.657 39.3817C334.631 39.3817 335.148 40.2266 335.148 41.4545C335.148 42.6918 334.622 43.5504 333.657 43.5504C332.71 43.5504 332.166 42.7195 332.166 41.4545ZM338.208 45H340.175V40.9883C340.175 40.1158 340.812 39.5156 341.68 39.5156C341.952 39.5156 342.326 39.5618 342.511 39.6218V37.8768C342.335 37.8352 342.091 37.8075 341.892 37.8075C341.098 37.8075 340.447 38.2692 340.189 39.1463H340.115V37.9091H338.208V45ZM346.169 45.1385C347.923 45.1385 349.105 44.2844 349.382 42.9688L347.563 42.8487C347.365 43.3888 346.857 43.6705 346.201 43.6705C345.218 43.6705 344.595 43.0195 344.595 41.9624V41.9577H349.424V41.4176C349.424 39.0078 347.965 37.8168 346.091 37.8168C344.004 37.8168 342.651 39.2987 342.651 41.4869C342.651 43.7351 343.985 45.1385 346.169 45.1385ZM344.595 40.739C344.636 39.9311 345.25 39.2848 346.123 39.2848C346.977 39.2848 347.568 39.8942 347.572 40.739H344.595ZM350.447 45H352.414V40.9883C352.414 40.1158 353.051 39.5156 353.919 39.5156C354.191 39.5156 354.565 39.5618 354.75 39.6218V37.8768C354.574 37.8352 354.329 37.8075 354.131 37.8075C353.337 37.8075 352.686 38.2692 352.427 39.1463H352.354V37.9091H350.447V45ZM358.38 45.1385C360.531 45.1385 361.87 43.6658 361.87 41.4822C361.87 39.2848 360.531 37.8168 358.38 37.8168C356.229 37.8168 354.89 39.2848 354.89 41.4822C354.89 43.6658 356.229 45.1385 358.38 45.1385ZM358.389 43.6151C357.397 43.6151 356.889 42.7056 356.889 41.4684C356.889 40.2312 357.397 39.3171 358.389 39.3171C359.363 39.3171 359.871 40.2312 359.871 41.4684C359.871 42.7056 359.363 43.6151 358.389 43.6151Z" fill="white"/>
<g clip-path="url(#clip0_1377_240)">
<path d="M267.347 27.9933C267.347 26.2043 267.362 24.41 267.34 22.6277C267.33 21.8898 267.615 21.4173 268.268 21.0749C271.317 19.4735 274.357 17.8544 277.389 16.2176C277.623 16.0763 277.89 16.0011 278.163 15.9997C278.436 15.9983 278.704 16.0708 278.939 16.2096C281.984 17.842 285.033 19.4664 288.088 21.0829C288.728 21.42 289.007 21.8938 288.999 22.6157C288.985 26.2043 288.985 29.7925 288.999 33.3802C288.999 34.1181 288.718 34.5958 288.069 34.9369C285.021 36.5401 281.98 38.1583 278.947 39.7916C278.713 39.9319 278.445 40.006 278.172 40.006C277.899 40.006 277.632 39.9319 277.397 39.7916C274.333 38.1459 271.265 36.5091 268.191 34.8812C267.6 34.568 267.336 34.1167 267.341 33.4479C267.356 31.6376 267.347 29.8155 267.347 27.9933ZM288.186 22.4737L287.784 22.6768C284.817 24.1933 281.849 25.7084 278.879 27.2222C278.776 27.2598 278.688 27.3314 278.63 27.4255C278.572 27.5197 278.547 27.6309 278.559 27.7412C278.567 31.3846 278.567 35.0267 278.559 38.6675V39.0656C278.698 38.9993 278.796 38.9595 278.89 38.909C281.823 37.347 284.752 35.7783 287.686 34.2282C288.055 34.0331 288.203 33.7942 288.202 33.3735C288.189 29.8646 288.194 26.3543 288.194 22.8453C288.203 22.7431 288.194 22.6357 288.186 22.4737ZM277.775 39.0882V38.6675C277.775 35.9955 277.775 33.324 277.775 30.6529C277.775 29.6602 277.767 28.6622 277.775 27.6735C277.786 27.5832 277.765 27.492 277.718 27.415C277.67 27.338 277.597 27.2798 277.512 27.2501C276.998 27.0086 276.497 26.7378 275.992 26.4791C275.518 26.2362 275.044 25.996 274.528 25.7332V30.1128C274.536 30.2854 274.491 30.4564 274.399 30.6021C274.307 30.7479 274.173 30.8614 274.015 30.9269C273.857 30.9925 273.682 31.007 273.516 30.9684C273.349 30.9298 273.198 30.84 273.084 30.7113C272.92 30.5546 272.766 30.3875 272.623 30.211C272.387 29.8964 272.128 29.8128 271.729 29.9097C271.087 30.0716 270.66 29.6947 270.659 29.0325C270.659 27.3762 270.659 25.7146 270.659 24.065C270.659 23.838 270.617 23.7133 270.397 23.6098C269.74 23.2952 269.084 22.9462 268.438 22.6157C268.354 22.5733 268.266 22.5388 268.155 22.4897C268.146 22.6131 268.134 22.6994 268.134 22.7856C268.134 26.3521 268.134 29.9177 268.134 33.4824C268.123 33.6299 268.159 33.7771 268.235 33.9032C268.312 34.0292 268.426 34.1276 268.561 34.1844C269.975 34.925 271.381 35.6801 272.79 36.4299L277.775 39.0882ZM273.744 30.1964V29.7982C273.744 28.4512 273.744 27.1041 273.744 25.7571C273.744 25.1254 274.007 24.6954 274.571 24.4153C276.861 23.2475 279.148 22.076 281.431 20.9011C282.198 20.5096 282.963 20.1141 283.776 19.696C283.095 19.3324 282.463 19.0019 281.83 18.6529C281.759 18.607 281.675 18.5827 281.59 18.5827C281.505 18.5827 281.422 18.607 281.35 18.6529C278.19 20.2747 275.027 21.892 271.86 23.5049C271.724 23.5595 271.61 23.6568 271.533 23.7826C271.456 23.9083 271.421 24.0557 271.434 24.203C271.447 25.7491 271.434 27.2952 271.434 28.84C271.434 28.9343 271.446 29.0298 271.455 29.1466C271.571 29.1312 271.687 29.1094 271.801 29.0816C272.271 28.9356 272.648 29.0537 272.972 29.4346C273.197 29.696 273.459 29.915 273.744 30.1911V30.1964ZM287.737 21.8102C286.718 21.2674 285.757 20.7485 284.787 20.2508C284.724 20.2301 284.657 20.2224 284.591 20.2281C284.525 20.2338 284.461 20.2528 284.402 20.284C281.363 21.827 278.329 23.3758 275.299 24.9303C275.22 24.9714 275.145 25.0245 275.036 25.0935C275.955 25.5633 276.834 25.9973 277.696 26.4645C277.84 26.552 278.004 26.5983 278.171 26.5983C278.339 26.5983 278.503 26.552 278.647 26.4645C280.428 25.5355 282.22 24.6264 284.01 23.7106C285.227 23.0909 286.457 22.4591 287.737 21.8049V21.8102ZM268.606 21.8102C269.286 22.1579 269.93 22.4618 270.545 22.8148C270.891 23.0126 271.155 23.0099 271.52 22.8148C274.459 21.2846 277.411 19.785 280.359 18.2747C280.469 18.2176 280.577 18.1552 280.728 18.0716C279.978 17.6735 279.27 17.3072 278.576 16.9183C278.45 16.8421 278.306 16.8028 278.16 16.8047C278.014 16.8065 277.871 16.8496 277.747 16.929C276.054 17.8434 274.352 18.7431 272.655 19.6469L268.606 21.8102Z" fill="white"/>
<path d="M273.442 41.5766C273.034 41.5923 272.64 41.7279 272.307 41.9668C271.414 42.6038 270.528 43.2488 269.634 43.8845C269.488 43.9893 269.47 44.069 269.577 44.2203C270.35 45.3094 271.119 46.4021 271.884 47.4983C271.994 47.6575 272.082 47.6814 272.233 47.5567C272.678 47.1864 273.175 46.9847 273.763 47.1147C273.962 47.1599 274.157 47.2156 274.359 47.2674L279.753 48.6582C279.904 48.6933 280.061 48.6928 280.211 48.6569C280.362 48.621 280.502 48.5506 280.621 48.4512C282.029 47.4452 283.437 46.441 284.845 45.4386C285.612 44.8918 286.378 44.3441 287.145 43.7956C287.31 43.6871 287.437 43.5297 287.51 43.3451C287.582 43.1604 287.597 42.9576 287.551 42.7644C287.519 42.5834 287.437 42.4154 287.313 42.2811C287.189 42.1468 287.029 42.0518 286.852 42.0079C286.7 41.9634 286.539 41.9564 286.384 41.9873C286.228 42.0182 286.082 42.0863 285.958 42.1857C285.227 42.706 284.493 43.2222 283.759 43.7412C283.717 43.7703 283.676 43.8009 283.628 43.8301C283.403 43.984 283.219 43.98 283.103 43.8168C282.986 43.6536 283.041 43.4691 283.256 43.3125C283.435 43.1798 283.616 43.0577 283.796 42.9303C284.404 42.5003 285.006 42.0663 285.618 41.6443C286.649 40.9289 287.989 41.4943 288.182 42.7365C288.285 43.4001 288.029 43.9429 287.484 44.3291C285.627 45.6562 283.77 46.9834 281.912 48.3105C281.66 48.4897 281.395 48.6529 281.158 48.8506C280.581 49.3377 279.957 49.3948 279.24 49.1997C277.385 48.694 275.519 48.2322 273.656 47.7544C273.277 47.6575 272.68 47.8686 272.475 48.1791C272.464 48.2076 272.46 48.2381 272.463 48.2683C272.465 48.2986 272.474 48.328 272.489 48.3543C272.546 48.4565 272.621 48.5467 272.689 48.6463C272.828 48.8613 272.812 49.0179 272.614 49.1665C272.267 49.4319 271.914 49.6801 271.564 49.9283C271.529 49.9569 271.49 49.9781 271.447 49.9905C271.404 50.0029 271.36 50.0062 271.316 50.0002C271.272 49.9942 271.229 49.9791 271.191 49.9557C271.153 49.9324 271.12 49.9014 271.095 49.8646C270.994 49.7173 271.033 49.5341 271.208 49.4027C271.425 49.2382 271.645 49.0776 271.864 48.9263C271.996 48.8387 271.996 48.7577 271.909 48.637C270.783 47.0364 269.658 45.4355 268.535 43.8341C268.446 43.7013 268.375 43.6934 268.253 43.7863C268.024 43.9601 267.79 44.126 267.554 44.2893C267.351 44.4313 267.16 44.4114 267.053 44.2455C266.945 44.0796 266.997 43.9097 267.184 43.7704C267.534 43.5138 267.887 43.2607 268.242 43.0112C268.481 42.844 268.623 42.8785 268.8 43.1147C269.085 43.5009 269.084 43.4996 269.48 43.213C270.29 42.6264 271.099 42.0358 271.917 41.4585C272.251 41.2135 272.637 41.0522 273.045 40.9881C273.452 40.9239 273.869 40.9587 274.26 41.0895C276.477 41.7531 278.697 42.3954 280.915 43.0431C281.281 43.1378 281.603 43.3561 281.829 43.6619C282.054 43.9676 282.169 44.3422 282.155 44.7232C282.136 45.1015 281.985 45.4608 281.729 45.7366C281.472 46.0124 281.126 46.1867 280.754 46.2282C280.528 46.2539 280.3 46.2382 280.08 46.1818C278.924 45.9084 277.77 45.6204 276.616 45.3364L276.553 45.3178C276.323 45.2461 276.226 45.1055 276.274 44.9197C276.323 44.7339 276.486 44.6542 276.717 44.7086C277.145 44.8108 277.571 44.921 277.998 45.0258C278.754 45.2116 279.509 45.4001 280.265 45.5779C280.831 45.7106 281.359 45.408 281.493 44.8825C281.627 44.3569 281.318 43.8314 280.741 43.6602C279.165 43.1944 277.59 42.7312 276.008 42.2747C275.304 42.069 274.6 41.8593 273.894 41.6589C273.745 41.6226 273.594 41.5952 273.442 41.5766V41.5766Z" fill="white"/>
</g>
<path d="M297.822 29H304.211V27.3519H299.821V25.0945H303.865V23.4464H299.821V21.1935H304.192V19.5455H297.822V29ZM307.451 24.9006C307.456 23.9865 308.001 23.451 308.795 23.451C309.584 23.451 310.06 23.968 310.055 24.8359V29H312.022V24.4851C312.022 22.8324 311.052 21.8168 309.575 21.8168C308.522 21.8168 307.761 22.3338 307.442 23.1602H307.359V21.9091H305.485V29H307.451V24.9006ZM317.083 21.9091H315.749V20.2102H313.783V21.9091H312.813V23.3864H313.783V27.0795C313.773 28.4691 314.72 29.157 316.146 29.0969C316.654 29.0785 317.014 28.9769 317.213 28.9123L316.903 27.4489C316.806 27.4673 316.599 27.5135 316.414 27.5135C316.022 27.5135 315.749 27.3658 315.749 26.821V23.3864H317.083V21.9091ZM318.104 29H320.071V24.9883C320.071 24.1158 320.708 23.5156 321.576 23.5156C321.848 23.5156 322.222 23.5618 322.407 23.6218V21.8768C322.232 21.8352 321.987 21.8075 321.788 21.8075C320.994 21.8075 320.343 22.2692 320.085 23.1463H320.011V21.9091H318.104V29ZM326.065 29.1385C327.819 29.1385 329.001 28.2844 329.278 26.9688L327.459 26.8487C327.261 27.3888 326.753 27.6705 326.098 27.6705C325.114 27.6705 324.491 27.0195 324.491 25.9624V25.9577H329.32V25.4176C329.32 23.0078 327.861 21.8168 325.987 21.8168C323.9 21.8168 322.547 23.2987 322.547 25.4869C322.547 27.7351 323.882 29.1385 326.065 29.1385ZM324.491 24.739C324.533 23.9311 325.147 23.2848 326.019 23.2848C326.873 23.2848 327.464 23.8942 327.469 24.739H324.491ZM333.538 31.8068C335.564 31.8068 337.005 30.8835 337.005 29.0692V21.9091H335.052V23.1001H334.978C334.715 22.5231 334.138 21.8168 332.952 21.8168C331.396 21.8168 330.08 23.0263 330.08 25.4407C330.08 27.7997 331.359 28.8984 332.956 28.8984C334.087 28.8984 334.72 28.3306 334.978 27.7443H335.061V29.0415C335.061 30.0156 334.438 30.3942 333.584 30.3942C332.716 30.3942 332.278 30.0156 332.116 29.5863L330.297 29.831C330.532 30.9482 331.627 31.8068 333.538 31.8068ZM333.579 27.4212C332.615 27.4212 332.088 26.6548 332.088 25.4315C332.088 24.2266 332.605 23.3817 333.579 23.3817C334.535 23.3817 335.07 24.1896 335.07 25.4315C335.07 26.6825 334.526 27.4212 333.579 27.4212ZM340.332 29.1339C341.38 29.1339 342.058 28.6768 342.405 28.0167H342.46V29H344.325V24.2173C344.325 22.5277 342.894 21.8168 341.315 21.8168C339.616 21.8168 338.499 22.6293 338.227 23.9219L340.046 24.0696C340.179 23.5987 340.6 23.2525 341.306 23.2525C341.975 23.2525 342.358 23.5895 342.358 24.1712V24.1989C342.358 24.6559 341.874 24.7159 340.641 24.8359C339.238 24.9652 337.977 25.4361 337.977 27.0195C337.977 28.4229 338.979 29.1339 340.332 29.1339ZM340.895 27.7766C340.29 27.7766 339.856 27.495 339.856 26.9549C339.856 26.4009 340.313 26.1286 341.006 26.0316C341.435 25.9716 342.137 25.87 342.372 25.7131V26.4656C342.372 27.2088 341.758 27.7766 340.895 27.7766ZM301.016 45.1385C302.771 45.1385 303.952 44.2844 304.229 42.9688L302.411 42.8487C302.212 43.3888 301.704 43.6705 301.049 43.6705C300.065 43.6705 299.442 43.0195 299.442 41.9624V41.9577H304.271V41.4176C304.271 39.0078 302.812 37.8168 300.938 37.8168C298.851 37.8168 297.499 39.2987 297.499 41.4869C297.499 43.7351 298.833 45.1385 301.016 45.1385ZM299.442 40.739C299.484 39.9311 300.098 39.2848 300.97 39.2848C301.824 39.2848 302.415 39.8942 302.42 40.739H299.442ZM307.261 40.9006C307.266 39.9865 307.81 39.451 308.604 39.451C309.394 39.451 309.869 39.968 309.865 40.8359V45H311.831V40.4851C311.831 38.8324 310.862 37.8168 309.385 37.8168C308.332 37.8168 307.57 38.3338 307.252 39.1602H307.169V37.9091H305.294V45H307.261V40.9006ZM315.907 45H317.906V41.0945H321.751V39.4464H317.906V37.1935H322.167V35.5455H315.907V45ZM325.926 45.1385C327.68 45.1385 328.862 44.2844 329.139 42.9688L327.32 42.8487C327.121 43.3888 326.613 43.6705 325.958 43.6705C324.975 43.6705 324.351 43.0195 324.351 41.9624V41.9577H329.18V41.4176C329.18 39.0078 327.721 37.8168 325.847 37.8168C323.76 37.8168 322.408 39.2987 322.408 41.4869C322.408 43.7351 323.742 45.1385 325.926 45.1385ZM324.351 40.739C324.393 39.9311 325.007 39.2848 325.879 39.2848C326.733 39.2848 327.324 39.8942 327.329 40.739H324.351ZM330.24 45H332.179V43.8643H332.267C332.539 44.4553 333.135 45.1154 334.28 45.1154C335.896 45.1154 337.156 43.8366 337.156 41.4638C337.156 39.0263 335.84 37.8168 334.285 37.8168C333.098 37.8168 332.53 38.5231 332.267 39.1001H332.207V35.5455H330.24V45ZM332.166 41.4545C332.166 40.1896 332.701 39.3817 333.657 39.3817C334.631 39.3817 335.148 40.2266 335.148 41.4545C335.148 42.6918 334.622 43.5504 333.657 43.5504C332.71 43.5504 332.166 42.7195 332.166 41.4545ZM338.208 45H340.175V40.9883C340.175 40.1158 340.812 39.5156 341.68 39.5156C341.952 39.5156 342.326 39.5618 342.511 39.6218V37.8768C342.335 37.8352 342.091 37.8075 341.892 37.8075C341.098 37.8075 340.447 38.2692 340.189 39.1463H340.115V37.9091H338.208V45ZM346.169 45.1385C347.923 45.1385 349.105 44.2844 349.382 42.9688L347.563 42.8487C347.365 43.3888 346.857 43.6705 346.201 43.6705C345.218 43.6705 344.595 43.0195 344.595 41.9624V41.9577H349.424V41.4176C349.424 39.0078 347.965 37.8168 346.091 37.8168C344.004 37.8168 342.651 39.2987 342.651 41.4869C342.651 43.7351 343.985 45.1385 346.169 45.1385ZM344.595 40.739C344.636 39.9311 345.25 39.2848 346.123 39.2848C346.977 39.2848 347.568 39.8942 347.572 40.739H344.595ZM350.447 45H352.414V40.9883C352.414 40.1158 353.051 39.5156 353.919 39.5156C354.191 39.5156 354.565 39.5618 354.75 39.6218V37.8768C354.574 37.8352 354.329 37.8075 354.131 37.8075C353.337 37.8075 352.686 38.2692 352.427 39.1463H352.354V37.9091H350.447V45ZM358.38 45.1385C360.531 45.1385 361.87 43.6658 361.87 41.4822C361.87 39.2848 360.531 37.8168 358.38 37.8168C356.229 37.8168 354.89 39.2848 354.89 41.4822C354.89 43.6658 356.229 45.1385 358.38 45.1385ZM358.389 43.6151C357.397 43.6151 356.889 42.7056 356.889 41.4684C356.889 40.2312 357.397 39.3171 358.389 39.3171C359.363 39.3171 359.871 40.2312 359.871 41.4684C359.871 42.7056 359.363 43.6151 358.389 43.6151Z" fill="white"/>
<g clip-path="url(#clip1_1377_240)">
<path d="M267.347 27.9933C267.347 26.2043 267.362 24.41 267.34 22.6277C267.33 21.8898 267.615 21.4173 268.268 21.0749C271.317 19.4735 274.357 17.8544 277.389 16.2176C277.623 16.0763 277.89 16.0011 278.163 15.9997C278.436 15.9983 278.704 16.0708 278.939 16.2096C281.984 17.842 285.033 19.4664 288.088 21.0829C288.728 21.42 289.007 21.8938 288.999 22.6157C288.985 26.2043 288.985 29.7925 288.999 33.3802C288.999 34.1181 288.718 34.5958 288.069 34.9369C285.021 36.5401 281.98 38.1583 278.947 39.7916C278.713 39.9319 278.445 40.006 278.172 40.006C277.899 40.006 277.632 39.9319 277.397 39.7916C274.333 38.1459 271.265 36.5091 268.191 34.8812C267.6 34.568 267.336 34.1167 267.341 33.4479C267.356 31.6376 267.347 29.8155 267.347 27.9933ZM288.186 22.4737L287.784 22.6768C284.817 24.1933 281.849 25.7084 278.879 27.2222C278.776 27.2598 278.688 27.3314 278.63 27.4255C278.572 27.5197 278.547 27.6309 278.559 27.7412C278.567 31.3846 278.567 35.0267 278.559 38.6675V39.0656C278.698 38.9993 278.796 38.9595 278.89 38.909C281.823 37.347 284.752 35.7783 287.686 34.2282C288.055 34.0331 288.203 33.7942 288.202 33.3735C288.189 29.8646 288.194 26.3543 288.194 22.8453C288.203 22.7431 288.194 22.6357 288.186 22.4737ZM277.775 39.0882V38.6675C277.775 35.9955 277.775 33.324 277.775 30.6529C277.775 29.6602 277.767 28.6622 277.775 27.6735C277.786 27.5832 277.765 27.492 277.718 27.415C277.67 27.338 277.597 27.2798 277.512 27.2501C276.998 27.0086 276.497 26.7378 275.992 26.4791C275.518 26.2362 275.044 25.996 274.528 25.7332V30.1128C274.536 30.2854 274.491 30.4564 274.399 30.6021C274.307 30.7479 274.173 30.8614 274.015 30.9269C273.857 30.9925 273.682 31.007 273.516 30.9684C273.349 30.9298 273.198 30.84 273.084 30.7113C272.92 30.5546 272.766 30.3875 272.623 30.211C272.387 29.8964 272.128 29.8128 271.729 29.9097C271.087 30.0716 270.66 29.6947 270.659 29.0325C270.659 27.3762 270.659 25.7146 270.659 24.065C270.659 23.838 270.617 23.7133 270.397 23.6098C269.74 23.2952 269.084 22.9462 268.438 22.6157C268.354 22.5733 268.266 22.5388 268.155 22.4897C268.146 22.6131 268.134 22.6994 268.134 22.7856C268.134 26.3521 268.134 29.9177 268.134 33.4824C268.123 33.6299 268.159 33.7771 268.235 33.9032C268.312 34.0292 268.426 34.1276 268.561 34.1844C269.975 34.925 271.381 35.6801 272.79 36.4299L277.775 39.0882ZM273.744 30.1964V29.7982C273.744 28.4512 273.744 27.1041 273.744 25.7571C273.744 25.1254 274.007 24.6954 274.571 24.4153C276.861 23.2475 279.148 22.076 281.431 20.9011C282.198 20.5096 282.963 20.1141 283.776 19.696C283.095 19.3324 282.463 19.0019 281.83 18.6529C281.759 18.607 281.675 18.5827 281.59 18.5827C281.505 18.5827 281.422 18.607 281.35 18.6529C278.19 20.2747 275.027 21.892 271.86 23.5049C271.724 23.5595 271.61 23.6568 271.533 23.7826C271.456 23.9083 271.421 24.0557 271.434 24.203C271.447 25.7491 271.434 27.2952 271.434 28.84C271.434 28.9343 271.446 29.0298 271.455 29.1466C271.571 29.1312 271.687 29.1094 271.801 29.0816C272.271 28.9356 272.648 29.0537 272.972 29.4346C273.197 29.696 273.459 29.915 273.744 30.1911V30.1964ZM287.737 21.8102C286.718 21.2674 285.757 20.7485 284.787 20.2508C284.724 20.2301 284.657 20.2224 284.591 20.2281C284.525 20.2338 284.461 20.2528 284.402 20.284C281.363 21.827 278.329 23.3758 275.299 24.9303C275.22 24.9714 275.145 25.0245 275.036 25.0935C275.955 25.5633 276.834 25.9973 277.696 26.4645C277.84 26.552 278.004 26.5983 278.171 26.5983C278.339 26.5983 278.503 26.552 278.647 26.4645C280.428 25.5355 282.22 24.6264 284.01 23.7106C285.227 23.0909 286.457 22.4591 287.737 21.8049V21.8102ZM268.606 21.8102C269.286 22.1579 269.93 22.4618 270.545 22.8148C270.891 23.0126 271.155 23.0099 271.52 22.8148C274.459 21.2846 277.411 19.785 280.359 18.2747C280.469 18.2176 280.577 18.1552 280.728 18.0716C279.978 17.6735 279.27 17.3072 278.576 16.9183C278.45 16.8421 278.306 16.8028 278.16 16.8047C278.014 16.8065 277.871 16.8496 277.747 16.929C276.054 17.8434 274.352 18.7431 272.655 19.6469L268.606 21.8102Z" fill="white"/>
<path d="M273.442 41.5766C273.034 41.5923 272.64 41.7279 272.307 41.9668C271.414 42.6038 270.528 43.2488 269.634 43.8845C269.488 43.9893 269.47 44.069 269.577 44.2203C270.35 45.3094 271.119 46.4021 271.884 47.4983C271.994 47.6575 272.082 47.6814 272.233 47.5567C272.678 47.1864 273.175 46.9847 273.763 47.1147C273.962 47.1599 274.157 47.2156 274.359 47.2674L279.753 48.6582C279.904 48.6933 280.061 48.6928 280.211 48.6569C280.362 48.621 280.502 48.5506 280.621 48.4512C282.029 47.4452 283.437 46.441 284.845 45.4386C285.612 44.8918 286.378 44.3441 287.145 43.7956C287.31 43.6871 287.437 43.5297 287.51 43.3451C287.582 43.1604 287.597 42.9576 287.551 42.7644C287.519 42.5834 287.437 42.4154 287.313 42.2811C287.189 42.1468 287.029 42.0518 286.852 42.0079C286.7 41.9634 286.539 41.9564 286.384 41.9873C286.228 42.0182 286.082 42.0863 285.958 42.1857C285.227 42.706 284.493 43.2222 283.759 43.7412C283.717 43.7703 283.676 43.8009 283.628 43.8301C283.403 43.984 283.219 43.98 283.103 43.8168C282.986 43.6536 283.041 43.4691 283.256 43.3125C283.435 43.1798 283.616 43.0577 283.796 42.9303C284.404 42.5003 285.006 42.0663 285.618 41.6443C286.649 40.9289 287.989 41.4943 288.182 42.7365C288.285 43.4001 288.029 43.9429 287.484 44.3291C285.627 45.6562 283.77 46.9834 281.912 48.3105C281.66 48.4897 281.395 48.6529 281.158 48.8506C280.581 49.3377 279.957 49.3948 279.24 49.1997C277.385 48.694 275.519 48.2322 273.656 47.7544C273.277 47.6575 272.68 47.8686 272.475 48.1791C272.464 48.2076 272.46 48.2381 272.463 48.2683C272.465 48.2986 272.474 48.328 272.489 48.3543C272.546 48.4565 272.621 48.5467 272.689 48.6463C272.828 48.8613 272.812 49.0179 272.614 49.1665C272.267 49.4319 271.914 49.6801 271.564 49.9283C271.529 49.9569 271.49 49.9781 271.447 49.9905C271.404 50.0029 271.36 50.0062 271.316 50.0002C271.272 49.9942 271.229 49.9791 271.191 49.9557C271.153 49.9324 271.12 49.9014 271.095 49.8646C270.994 49.7173 271.033 49.5341 271.208 49.4027C271.425 49.2382 271.645 49.0776 271.864 48.9263C271.996 48.8387 271.996 48.7577 271.909 48.637C270.783 47.0364 269.658 45.4355 268.535 43.8341C268.446 43.7013 268.375 43.6934 268.253 43.7863C268.024 43.9601 267.79 44.126 267.554 44.2893C267.351 44.4313 267.16 44.4114 267.053 44.2455C266.945 44.0796 266.997 43.9097 267.184 43.7704C267.534 43.5138 267.887 43.2607 268.242 43.0112C268.481 42.844 268.623 42.8785 268.8 43.1147C269.085 43.5009 269.084 43.4996 269.48 43.213C270.29 42.6264 271.099 42.0358 271.917 41.4585C272.251 41.2135 272.637 41.0522 273.045 40.9881C273.452 40.9239 273.869 40.9587 274.26 41.0895C276.477 41.7531 278.697 42.3954 280.915 43.0431C281.281 43.1378 281.603 43.3561 281.829 43.6619C282.054 43.9676 282.169 44.3422 282.155 44.7232C282.136 45.1015 281.985 45.4608 281.729 45.7366C281.472 46.0124 281.126 46.1867 280.754 46.2282C280.528 46.2539 280.3 46.2382 280.08 46.1818C278.924 45.9084 277.77 45.6204 276.616 45.3364L276.553 45.3178C276.323 45.2461 276.226 45.1055 276.274 44.9197C276.323 44.7339 276.486 44.6542 276.717 44.7086C277.145 44.8108 277.571 44.921 277.998 45.0258C278.754 45.2116 279.509 45.4001 280.265 45.5779C280.831 45.7106 281.359 45.408 281.493 44.8825C281.627 44.3569 281.318 43.8314 280.741 43.6602C279.165 43.1944 277.59 42.7312 276.008 42.2747C275.304 42.069 274.6 41.8593 273.894 41.6589C273.745 41.6226 273.594 41.5952 273.442 41.5766V41.5766Z" fill="white"/>
</g>
<defs>
<clipPath id="clip0_1377_240">
<rect width="22" height="34" fill="white" transform="translate(267 16)"/>
</clipPath>
<clipPath id="clip1_1377_240">
<rect width="22" height="34" fill="white" transform="translate(267 16)"/>
</clipPath>
</defs>
</svg>
