<svg width="14" height="14" viewBox="0 0 14 14" fill="none" xmlns="http://www.w3.org/2000/svg">
<circle cx="7" cy="7" r="7" fill="white"/>
<path d="M6.09375 8.60156H7.57422V8.46875C7.58203 7.70703 7.85547 7.35156 8.47266 6.98047C9.20313 6.54687 9.67969 5.97266 9.67969 5.05469C9.67969 3.6875 8.57813 2.89062 7.02734 2.89062C5.60938 2.89062 4.45313 3.63281 4.41797 5.19531H6.01172C6.03516 4.55859 6.50781 4.21875 7.01953 4.21875C7.54688 4.21875 7.97266 4.57031 7.97266 5.11328C7.97266 5.625 7.60156 5.96484 7.12109 6.26953C6.46484 6.68359 6.09766 7.10156 6.09375 8.46875V8.60156ZM6.86328 11.1016C7.36328 11.1016 7.79688 10.6836 7.80078 10.1641C7.79688 9.65234 7.36328 9.23437 6.86328 9.23437C6.34766 9.23437 5.92188 9.65234 5.92578 10.1641C5.92188 10.6836 6.34766 11.1016 6.86328 11.1016Z" fill="#1F1F1F"/>
</svg>
